<svg xmlns="http://www.w3.org/2000/svg" xmlns:xlink="http://www.w3.org/1999/xlink" width="1920" height="1080" viewBox="0 0 1920 1080"><defs><clipPath id="b"><rect width="1920" height="1080"/></clipPath></defs><g id="a" clip-path="url(#b)"><rect width="1920" height="1080" fill="#fff"/><rect width="1920" height="1080" fill="none"/><g transform="translate(1087.923 238.933)"><g transform="translate(0.002 -0.071)"><path d="M251.725,840.707H202.609c-11.842,0-23.744-.772-35.5.229-11.231.98-19.411-3.609-26.8-11.243-50.663-52.148-89.281-112.244-113.066-182.1A516.549,516.549,0,0,1,1.565,521.559c-6.775-84.292,8.668-163.975,42.728-240.549,26.674-59.991,63.074-112.64,111.234-156.32A469.121,469.121,0,0,1,313.762,28.737C349.49,15.93,385.91,6.335,423.429,2.5A490.694,490.694,0,0,1,512.2,1.453,485.366,485.366,0,0,1,655.156,35.788c25.474,10.2,50.154,22.048,69.036,43.8,15.484,17.876,17.824,50.187,10.5,70.588-2.584,7.176-6.226,2.086-9.237.167A697.118,697.118,0,0,0,648.889,105.9c-38.5-19.024-78.68-32.123-121.245-37.359-23.785-2.92-47.652-5.236-71.538-3.838C385.3,68.871,319.154,88.812,258.439,127.026a398.053,398.053,0,0,0-86.676,72.653A432.369,432.369,0,0,0,112.982,283.6,421.265,421.265,0,0,0,69.97,405.874a432.161,432.161,0,0,0-5.717,112.2A421.857,421.857,0,0,0,113.43,686.348c25.677,47.976,58.557,90.112,100.837,124.154C226.577,820.452,238.948,830.277,251.725,840.707Z" transform="translate(-0.002 0.071)" fill="#fef5dc"/><path d="M611.317,412.174c0,114.308-.14,228.615.234,342.923,0,9.7-2.711,12.544-14.024,12.5q-159.662-.552-319.37,0c-7.347.511-14.335-2.862-17.764-8.574-20.187-28.943-17.213-65.905,7.409-92.085,30.385-31.534,71.545-46.145,115.44-54.268,59.555-11.009,118.455-4.686,175.883,12.462,12.528,3.724,12.6,3.642,12.6-7.633,0-139.477-.21-278.955.327-418.432,0-18.253,4-36.691,1.449-54.821a393.457,393.457,0,0,1-4.207-55.66c0-17.619,15.73-29.447,33.05-33.376,6.264-1.432,9.677.819,9.045,6.9-.234,2.353,0,4.747,0,7.142Z" transform="translate(220.524 73.445)" fill="#fef5dc"/><path d="M336.579,153.626A178.734,178.734,0,0,1,516.552,333.6c-.538,102.234-78.51,179.973-180.744,180.838-99.359.818-185.209-81.385-180.324-190.374C159.644,233.259,236.846,152.528,336.579,153.626Zm-.748,41.931c-76.29-6.755-143.417,66.263-143.838,138.649-.467,78.253,65.164,148.443,143.114,148.162s139.561-66.076,145.4-134.325C487.873,262.031,409.713,189.107,335.831,195.558Z" transform="translate(138.981 142.997)" fill="#fef5dc"/><path d="M314.816,171.809C388.7,165.358,466.742,238.352,459.5,324.3c-5.843,68.3-67.151,134.045-145.4,134.325S170.511,388.712,171,310.458C171.4,238.072,238.527,165.054,314.816,171.809Zm1.823,69.979c-38.8-1.917-73.953,32.722-74.514,70.587s34.9,71.9,73.859,71.662,70.61-31.39,70.634-69.769S353.943,241.835,316.639,241.788Z" transform="translate(161.42 167.354)" fill="#fff"/><path d="M275.987,201.543c37.4,0,70.119,33.938,69.979,72.457s-31.577,69.558-70.7,69.792-74.42-33.938-73.859-71.662S237.188,199.627,275.987,201.543Z" transform="translate(204.46 209.916)" fill="#fef5dc"/></g></g><g transform="translate(0.004 498.125)"><g transform="translate(-0.004 -0.014)"><path d="M364.809,405l4.424,1.666.126,1.61-47.423,8.583c3.08,3.206,6.175,2.156,9.255,1.554,8.625-1.652,17.236-3.318,25.9-4.69,1.036-.168,4.3-2.324,3.6,2.464-.406,2.688,3.514,1.484,5.335,1.19,5.194-.84,10.207-2.912,16.1-2.3-16.032,11.075-34.933,9.283-52.211,13.6-14.925,3.738-30.439,5.125-45.686,5.6-17.95.476-35.227,3.906-52.687,6.917a36.907,36.907,0,0,1-12.2-.5c-10.585-1.75-20.554.812-30.537,3.584h-18.2c14.071-4.578,28.969-5.054,44.23-9.171-5.083-2.114-9.465-4.746-13.819-5.867-16.256-4.2-32.2-9.353-47.059-16.8-10.473-5.334-20.064-4.872-30.551-2.52-6.539,1.47-13.161,2.576-19.784,3.584-2.058.308-4.522.98-7.239-1.974l33.071-6.231c-11.453-10.459-23.606-5.475-35.465-3.6-9.8,1.554-19.6,3.416-29.4,4.886-2.324.35-6.049.91-6.2-2.464-.126-2.7,3.318-1.4,5.167-1.75,7-1.4,14-2.8,21.086-4.088,1.4-.252,3,0,3.36-1.764a3.4,3.4,0,0,0-1.96-3.43c-9.2-6.007-17.922-12.979-30.327-8.135-5.279,2.072-11.2,2.422-16.956,3.36-4.018.672-7.2-.91-10.249-5.068l41.71-7.365c2.8-.49,7.813-.434,7.309-3.122-.7-3.836-3.262-8.765-8.961-7.981-9.619,1.33-19.182,3.024-28.745,4.7-2.072.364-4.718,1.638-5.138-1.19-.322-2.184,2.6-1.862,4.354-2.156l32.777-5.6c-.546-2.8-2.352-2.408-3.906-2.8-2.044-.434-7.757,3.668-4.648-3.752.6-1.4-2.142-1.75-3.808-1.4-5.433,1.064-10.893,2.058-16.326,3.192-2.072.434-4.088,1.12-5.993-1.694,6.651-3.22,13.875-3.024,20.652-4.55s13.805-3.878,20.456-3.234c10.627,1.036,20.722-.406,30.929-2.408a3.248,3.248,0,0,1,1.932.434c-.308,7.855,6.777,3.7,11.733,7l-39.5,7.393c4.592,2.8,8.093,1.806,11.509,1.19,8.191-1.4,16.354-3.052,24.544-4.452,6.749-1.148,7.785,6.427,13.035,7.631l-.322,1.82-49.243,8.807c3.206,4.747,7.449,5.475,12.1,4.7a202.24,202.24,0,0,0,21.758-4.2c5.194-1.4,9.325-.42,13.917,1.778,6.567,3.15,13.889,4.76,20.834,10.459l-29.865,5.489c3.122,3.836,6.539,3.794,9.9,3.192,14.561-2.576,29.067-5.432,43.642-7.9,9.213-1.554,17.488,3.248,26.463,5.307l-31.139,5.909c8.177,3.766,14.925.728,20.876-.784,16.8-4.284,33.519-3.766,50.517-1.624,15.612,1.974,31.307.9,47.031-.294a223.784,223.784,0,0,1,54.073,2.8c4.788.8,9.549,1.722,14.323,2.478,1.778.28,3.192.7,3.332,2.8-11.943.532-23.41,3.682-35,6.427C338.948,410.082,351.62,405.532,364.809,405Zm-8.737,13.259c0,.14,0,.35.112.406a2.228,2.228,0,0,0,.546.112l-.154-.7Z" transform="translate(11.413 137.616)" fill="#fce5b5"/><path d="M133.728,84.843c4.592-.574,7.967-3.612,11.719-5.825a218,218,0,0,1,87.579-29.235c49.677-5.6,95.671,5.153,138.459,30.537a208.618,208.618,0,0,1,31.839,23.41c1.232,1.092,2.408,2.226,4.2,2.058h0c0,2.968,2.45,4.284,4.116,6.133,4.957,5.461,10.8,10.095,15.065,16.242,1.4,2,2.912,4.312,5.965,4.2-.224,1.246-1.89,2.548-.266,3.724s3.038-.406,4.522-.868c.966,4.8-2.3,6.063-5.881,6.749-3.85.728-7.743,1.176-11.635,1.61-2.212.238-4.55.56-4.494,3.234,0,3.248,2.94,2.3,4.8,2.282s3.64-.966,5.419-.854c4.116.28,8.107-2.7,12.321-1.022-.168,1.82-1.218,1.778-2.072,1.946q-10.487,2.128-21,4.2c-1.918.378-4,.938-3.388,3.36.56,2.156,2.52,2.128,4.592,1.736,5.419-1.036,10.893-1.792,16.34-2.8,2.338-.406,5.461-2.506,6.035,1.554.518,3.738-2.968,4-5.741,4.466-4.984.854-9.983,1.68-14.939,2.632-1.624.322-4.452-.084-3.612,2.8.7,2.394,2.968,1.4,4.746.994,10.641-2.03,21.2-4.452,32.049-5.139.168.938.35,1.876.518,2.8-10.809.21-21.114,2.884-31.531,5.082l.308,1.736,22.332-3.71c-3.948,5.867-3.948,6.511-1.2,6.539,4.718,0,9.661,1.652,14.169-1.162h1.484v2.688c-2.912.6-5.783,2.184-8.793,1.4-10.977-2.912-21.24,1.4-31.8,2.8-12.111-11.467-25.118-22.038-34.513-36.152-3.276-4.886-7.281-10.137-14.827-7.5s-10.725,7.225-10.7,15.934c0,6.469.966,12.951,1.134,19.35.56,20.456,0,40.94-.07,61.424-6.847.266-13.707.532-21.73,4.3,8.583,2.9,15.177-1.484,21.786,0,0,2.268,0,4.536-.112,6.8-5.7.98-12.055-.182-16.256,5.517-1.666,2.268-1.9,4.494,1.148,4.06,5.363-.756,9.955,3.122,15.205,1.778v8.2c-7.323-.952-9.8,6.637-15.486,8.821-1.4.532-.266,2.324.8,3.864,3.906,5.685,9.6,3.822,14.785,4.2q0,10.389-.07,20.792a22.827,22.827,0,0,0-2.8.1c-9.493,1.484-20.148.378-24.782,12.111-1.12,2.8-4.382,2.73-7.141,3.36-6.175,1.4-13.5-.07-18.2,5.181a105.259,105.259,0,0,1-12.069,11.2,5.054,5.054,0,0,0-1.82,4.2l-19.5,8.541a70.272,70.272,0,0,0-35.381-.56c-9.6,2.422-16.9-2.464-25.524-8.331,5.839-.98,9.9-1.582,13.931-2.394a4.579,4.579,0,0,0,2.8-1.68c1.022-1.722-.98-2.156-1.792-3.15-5.895-7.183-12.951-3.892-19.8-2.212-2.394.588-6.007-1.05-7,1.694-1.106,3.024,3.094,4.06,4.312,6.427a5.714,5.714,0,0,1,.322,1.4c-4.928,2.212-10.361,2.058-15.5,3.22-1.918.434-3.164.826-1.834,3.108,2.184,3.794,12.335,8.723,17.054,8.093,5.6-.77,12.055-3.64,16.8-1.932,5.6,2,11.2,5.376,17.488,8.177-7.071,3.248-14.519,1.9-22.766,5.881,11.2,1.722,20.036,5.6,29.753,2.366,4.074-1.4,8.639-1.3,12.979-1.9-3.36,17.18,3.822,29.151,18.524,37.328a87.886,87.886,0,0,0,45.841,11.593c-7.337,2.912-15.248,3.024-22.836,4.676-1.484.322-5.054-.084-4.2,3.164.714,2.506,3.01,1.008,4.76.686q22.472-4.074,44.972-8.023c1.638-.294,3.584-1.526,4.676,1.9l-46.289,8.611c-2.114.392-5.951-.322-5.265,2.688s4.13.9,6.483.8c4.718-.182,9.381-3.808,14.449-.756-1.288,2.17-5.012,1.5-4.452,4.3.686,3.36,4.2-1.078,5.6,1.6-1.4,2.282-3.7,2.3-5.993,2.688-10.221,1.736-20.428,3.654-30.649,5.489-1.4.252-3.094.42-2.8,2.268.35,2.422,2.142,1.638,3.78,1.33,8.4-1.624,16.8-3.262,25.2-4.62,2.282-.378,6.581-1.512,6.315,1.61-.28,3.36,2.8,10.7-5.965,9.507-1.722-.238-3.57.812-5.391,1.134-11.2,1.918-22.318,3.7-33.421,5.783-2.94.56-7.281.854-6.035,5.671,1.106,4.312,4.284,1.834,6.791,1.4,5.447-1.036,11.075-1.4,16.312-3.08,9.955-3.108,16.2.812,21.478,8.975,3.038,4.676.6,5.531-2.912,6.175-6.357,1.162-12.783,1.946-19.126,3.122-2.8.5-6.245.084-7.309,3.92-28.927,3.864-57.126-.224-84.876-8.2-14-4.032-28.143-8.751-40.226-16.8-9.8-6.581-19.168-5.853-29.4-3.64-8.793,1.89-17.67,3.43-26.519,4.984-1.736.308-3.682.784-5.7-1.05,4.2-4.2,9.885-2.982,14.673-4.2,8.051-1.974,16.326-3,24.516-4.41,1.078-.182,2.52.2,2.954-1.2.518-1.652-.868-2.562-1.946-3.3a24.572,24.572,0,0,1-7.309-6.231c-.112-4.032-3.206-2.8-5.447-3.08-12.6-10.459-24.516-21.59-34.4-34.737-1.4-1.96-3.024-4.858-5.951-3.99-7.883,2.31-16.368,1.82-23.984,5.236h0c-1.75-.2-4.41.574-4.592-1.876s2.478-2.044,4.2-2.324c6.371-1.064,12.755-2.072,19.112-3.206,3.794-.686,5.04-2.03,2.268-5.839a193.219,193.219,0,0,1-23.858-45.392c3.388-.5,6.777-1.036,10.165-1.512,2.044-.294,3.682-1.19,3.654-3.4,0-2.576-1.96-3.206-4.2-3.556-3.794-.574-7.2,1.4-10.879,1.4h-1.4c-3.556-12.811-8.485-25.328-8.681-38.9,3.808-.784,7.645-1.4,11.4-2.394,1.512-.392,3.248-1.4,2.394-3.444-.7-1.652-2.2-1.022-3.584-.742-3.794.784-7.631,1.4-11.439,2.1-.616-3.388-1.666-6.735-1.246-10.249.56-4.746-2-5.531-5.937-4.732a81.46,81.46,0,0,1-12.6,1.75c4.2-2.8,8.961-2.8,13.581-3.416,3.416-.42,4.872-1.778,5-5.237.42-10.837-1.092-21.73,1.022-32.539.546-2.8-1.792-2.954-3.64-2.7-3.864.546-7.729,1.26-11.537,2.142a11.775,11.775,0,0,1-8.709-.672c8.135-4.494,16.578-3.682,24.18-5.853,2.8,5.6,7,2.17,10.613,1.6,1.792-.28,5.068.574,4.2-2.688-.7-2.7-3.346-1.078-5.307-.812-2.716.364-5.489.364-8.233.518l1.4-13.805h1.512c4.578-2.254,10.683,0,15.079-4.788-5.195-1.764-9.577-.14-14,.336,1.624-14,7.435-26.5,12.951-39.2,2.38-5.447,6.525-10.151,6.917-16.424h0l1.218-1.3,1.6-.112c2.926-.476,5.895-.784,8.765-1.4,4.662-1.12,7.309-4.592,6.735-9.045s-4.928-.938-7.281-2.156c1.988-5.6,6.441-9.423,9.507-14.225,1.33-2.086,4.284-3.5,3.262-6.763,1.05-1.526,2.646-1.2,4.2-1.26,8.4-.168,13.511-5.391,12.461-12.685,4.2-5.965,10.711-9.465,15.766-14.519,1.2-1.2,2.394-1.806-.294-2.212,3.724-2.2,8.177-3.136,11.117-6.623l1.5-1.722ZM333.5,232.893c-3.024-.28-8.247.42-6.217-4.382,2.38-5.6-1.274-3.794-3.416-3.976-10.641-.868-18.832,6.063-28.409,9.129,7.743-.392,14.869.546,20.218,6.847.448.518,1.764.56,2.618.42,4.76-.784,9.535-1.5,14.225-2.618,3.906-.924,1.652-3.43.98-5.433a71.224,71.224,0,0,0,18.79-4.2c-4.718-1.246-9.031.8-13.511,1.4C336.635,230.331,333.905,229.421,333.5,232.893Zm-159.28,27.933c-4.2.826-4.2-3.962-7.5-5.083,3.206-.966,6.693,0,8.919-5.167-8.5,2.8-17.712-1.792-22.99,7.813-.98,1.792-6.147,1.9-3.836,4.2,2.59,2.52,3.388,8.989,9.521,6.623,9.8-3.822,20.148.994,30.075-1.5,1.666,2.17.966,4.648.91,7-5.923.546-11.705,1.288-16.256,5.811-1.862,1.862-1.96,3.388.588,3.808,5.783.938,11.663,3.5,17.5.1l4.2,9.9c-8.527-2.7-12.391,5.209-18.37,8.247-1.89.966-.938,3.22.784,3.738,5.4,1.582,10.249,6.091,16.564,3.318,3.92-1.708,8.149-1.232,12.265-1.5,27.5,23.8,63.608,17.04,82.2-5.391,7.771.616,15.4-.966,23.27-2.282-2.38,9.983-1.82,10.543,7.575,8.513,3.15-.686,6.357-1.134,9.479-1.876,3.808-.91,3.99-4.368,4.088-7.211.14-3.626-3.108-2.478-5.223-2.8-1.288-.182-3.038.462-3.57-1.3s1.12-2.352,1.918-3.416c2.688-3.584,7.071-1.4,10.375-3.094,1.89-.938,4.3-1.274,3.472-4.2s-2.8-1.4-4.55-1.106a39.961,39.961,0,0,0-18.1,6.931c-6.091,4.3-15.247,4.494-23.368,4.746a5.769,5.769,0,0,1,2.66-4.382c7.337-1.54,7.323-1.526,5.279-7.687-.182-.546,0-1.792.28-1.848,7-1.54,9.955-10.179,17.936-9.8,2.226.084,5.264.518,5.531-2.7s-3.5-2.184-5.138-3.584c1.232-1.26,4.2-.126,4.046-2.954a2.17,2.17,0,0,0-3.192-1.708c-6.735,3.066-13.273-1.246-19.91-.294l-.084-2.632c9.661-10.753,24.222-3.626,35.479-9.8-.784-1.82-3.444-.952-3.892-2.128-1.806-4.8-4.8-5.138-9.227-3.7-3.668,1.19-9.675.07-11.1,2.268-3.528,5.447-8.4,3.892-12.909,4.886-.8-1.666-1.652-3.3-2.38-5.012-6.259-14.659-16.3-25.5-31.391-31.321-15.5-5.993-30.8-4.732-45.826,1.4,0-2.31.35-4.326,3.3-4.13a7.3,7.3,0,0,0,6.595-3.29c1.834-3.024,4.2-3.416,7.253-4.2,12.839-3.234,26.267-1.764,39.2-5.026,2.31-.574,5.475-2.8,7.281-.9,6.861,7.323,15.276,3.444,22.836,3.29,8.065-.168,16.074-2.464,24.11-3.822-6.889,1.554-5.6-7.169-9.9-7.925,8.4-2.6,17.67-1.988,25.566-6.763-20.05-.224-39.2,6.567-61.032,7.729,7.323-4.9,15.065-2.394,21.814-7.477-5.068-.406-7.281-4.466-11.5-3.612-5.6,1.162-11.327,2.212-16.984,3.332-5.223,1.036-10.347,1.4-15.808-1.652l49.187-8.765c-2.59-2.884-4.886-3.178-7.225-2.8-6.385,1.064-12.713,2.366-19.084,3.388-13.455,2.156-26.365,6.063-39.4,10.039-13.567,4.2-28.157,4.872-42.186,7.645-6.273,1.232-13.567,1.036-17.712,7.981,7,.8,13.371-1.96,20.414-2.38a13.2,13.2,0,0,1-10.249,7.8c-6.1,1.246-12.265,2.212-18.44,3.066-2.618.364-5.125.42-5.783,3.808a21,21,0,0,0,8.989-.294c13.357-2.618,26.771-4.957,40.17-7.407,2.03-.378,4.032-.168,4.41,2.142.462,2.8-2.226,1.848-3.444,2.058-10.459,1.834-21.254,1.064-31.559,4.018-6.077,1.736-12.811,1.078-18.412,4.746,6.385.7,12.6-2.926,20.372-1.05a20.805,20.805,0,0,1-3.136,1.708c-1.722.476-4.2.434-3.6,3.052.476,2,2.8,1.218,4.2,1.19,3.7,0,7.379-.336,11.047-.686s7.813-3.542,11.845-.546l-4.2,2.716c-10.291,1.582-21.632-.14-30.705,8.975,3.654,1.218,5.839-.168,8.009-.182,4.83,0,9.619-4.312,14.477-.252l-1.4,1.4c-6.735-.448-13.063,2-19.6,2.688-1.554.168-2.618.8-2.8,2.478a2.66,2.66,0,0,0,2.156,3c4.312,1.4,1.806,3.178-.1,4.382a24.755,24.755,0,0,1-4.9,1.82c4.788,6.343,11.033,2.7,16.8,2.254-.616,2.8-1.218,5.6-1.834,8.317C184.23,257.508,178.336,255.954,174.219,260.826ZM287.631,431.419c-1.064-1.176-1.526-2.03-2.24-2.408a142.73,142.73,0,0,0-50.181-15.85c-14.071-1.666-28.087-3.444-41.43-8.485-40.044-15.135-68.047-42.872-84.26-82.23a140.98,140.98,0,0,1-7-88.7c8.289-34.247,26.6-62.138,54.507-83.574,32.6-25.006,69.657-33.057,109.841-28.1,24.068,2.926,45.182,13.581,65.386,26.309,6.553,4.2,7.463,3.6,8.261-4.424,1.484-14.6-6.721-23.2-18.524-28.969a168.689,168.689,0,0,0-96.735-16.242c-36.964,4.55-69.391,19.07-96.091,44.8C85.927,185.275,69.881,236.884,78.184,295.83a153.819,153.819,0,0,0,38.882,82.734c37.426,41.458,84.008,61.606,140.266,58.05a124.615,124.615,0,0,0,30.369-5.195Zm34.163-210.651c8.569,3.948,17.054,1.554,25.5-.49,4.564-1.12,3.766-6.021,1.722-6.651-4.494-1.4-7.281-5.811-12.349-5.965-8.135-.252-15.752,1.946-25.384,4.1,4.06,1.652,5.124,4.942,8.709,3.5,2.016-.812,4.494-1.134,5.6,1.176C327.184,220.082,321.458,217.758,321.794,220.768ZM172.987,334.893a73.679,73.679,0,0,0,10.151-1.582c2.478-.714,6.511,0,7-2.8.5-2.576-3.15-4.2-4.942-6.2a3.962,3.962,0,0,0-4.3-1.232,123.775,123.775,0,0,1-12.839,2.058c-4.326.49-4.34,2.87-2.534,5.7C167.219,333.311,169.487,335.355,172.987,334.893Zm-33.253-35c-.616,2.8.364,4.34,4.438,3.4,3.808-.868,7.715-1.316,11.593-1.876,1.4-.21,3.332-.224,3.444-1.722.28-3.36-5.951-4.676-3.08-9.1-5.447.882-11.047,1.19-16.284,2.8S142.016,296.922,139.734,299.89Zm169.459-91.009c7.239-1.4,14-2.688,20.848-3.864,2.128-.364,3.7-1.078,3.234-3.5s-2.576-2.2-4.438-1.862c-6.8,1.246-13.6,2.534-20.4,3.794-1.694.322-4.382-.308-3.808,2.6C305.09,208.419,307.484,208.881,309.193,208.881ZM153.3,231.633c6.819-1.4,14-2.8,21.156-4.2,1.554-.322,3.6-.77,3.22-2.8-.42-2.3-2.52-1.4-3.99-1.106-7.2,1.246-14.379,2.59-21.576,3.808-1.666.28-3.738.56-3.612,2.394C148.681,232.459,151.327,231.073,153.3,231.633Zm60.206-45.924,35.563-6.511C236.582,178.078,224.4,178.484,213.507,185.709ZM167.219,319.492c4.368-.924,8.611-1.834,12.867-2.716,1.4-.294,3.7.322,3.22-2.3a3.514,3.514,0,0,0-4.48-3.15c-4.2.854-8.485,1.862-12.755,2.632-1.876.336-3.038,1.05-2.8,3.08C163.508,319.632,165.539,319.394,167.219,319.492Zm-16.032-81.656c-5.811-2.1-10.963.336-15.906,1.26-2.926.546-9.521-1.19-8.695,3.71.6,3.626,5.923-.378,9.171-.084a5.8,5.8,0,0,0,2.8-.154c3.962-1.834,9.269-.252,12.671-4.788Zm15.4,34.891c.112-1.092-.406-1.96-1.4-1.876-5.489.49-10.991.924-16.172,3.038a1.68,1.68,0,0,0-.8,2.352c.588,1.4,1.778,1.232,2.94,1.008l12.853-2.534a3.332,3.332,0,0,0,2.576-2.044Zm-24.572-24.446,21.408-3.766-.378-1.918C155.892,243.689,148.611,244.193,142.016,248.281Zm29.6,28.731a43.881,43.881,0,0,0-18.958,3.668,44.2,44.2,0,0,0,18.958-3.668Zm172.357-14.925c3.668,0,6.721.854,9.8-2.646C350.147,259.58,347.094,258.628,343.972,262.086Z" transform="translate(6.403 19.361)" fill="#fae6bc"/><path d="M96.893,141.882c-1.5,0-3.094-.266-4.2,1.26-12.811,1.4-25.2,5.489-38.182,5.783a6.468,6.468,0,0,1-.35-1.834c.518-2.45,4.48-3.85,3.01-6.567-1.736-3.192-4.662-.266-6.861,0-12.1,1.862-24.138,4.088-36.194,6.3a13.3,13.3,0,0,1-7.267,0c5.265-8.793,9.7-17.18,22.108-17.992,11.677-.77,23.13-4.41,34.793-5.881,6.273-.8,9.059-4.452,12.811-10.585l-55.739,9.8c1.4-5.237,3.934-7.883,9.073-8.4a175.274,175.274,0,0,0,18.44-3.08c7.1-1.47,9.129-8.555,14.729-13.077-8.667-1.288-15.976,3.234-24.53,1.932,4.928-5.138,10.921-3.99,16.13-5.026,13.6-2.716,27.3-4.83,40.982-7.127,2.212-.364,4.032-1.022,4.732-4.2l-48.333,8.4c2.548-6.063,7.477-3.794,10.753-5.307,2.8-1.3,6.357-1.078,9.521-1.722s7.323,0,7.127-5.419c0-1.68,2.072-1.5,3.416-1.526,2.646-.07,5.111-.378,6.5-4.27L53.125,79.716c6.693-6.623,15.542-6.413,23.634-7.393,10.683-1.288,19.364-5.068,27.037-14.813L56.807,65.6c4.2-5.181,8.793-6.623,13.679-7.477,8.4-1.484,16.8-2.716,25.2-4.34,6.245-1.2,11.467-5,16.634-8.317,15.318-9.8,32.651-12.6,50.027-15.163,6.833-1.008,12.6-4.2,18.832-6.665,7.911-3.22,16.326-4.648,24.7-6.315-.42-2.506-2.9-1.9-4.2-3.024-.322-.616-.1-.77.588-.868C224.8,10.1,247.38,7.132,269.81,3.114c9.885-1.708,19.9-2.268,29.725-3.108,3.038-.252,8.023,1.9,12.6,3.654L285.127,8.981c8.835,2.3,17.516,3.066,26.869,6.609l-29.571,5.419c4.746,2.3,8.065,3.43,12.6,2.534,15.864-3.122,31.713-6.469,47.759-8.135,6.413-.672,13.245,2.8,19.994,6.147l-31.811,6.161c1.6,3.08,3.71,2.338,5.741,1.96l34.107-6.259c2.8-.518,2.8-.462,5.307,3.5.322.518,1.722.35,2.632.5a2.268,2.268,0,0,1,2.142,1.988c-6.2,3.724-14.169,1.848-20.61,5.447,1.624,2.968,3.584,1.708,5.6,1.4,15.009-2.646,30.1-5.181,45.154-7.687,1.4-.224,3.472-1.918,3.934.742.434,2.422-1.946,1.974-3.43,2.24l-46.429,8.331c-1.694.294-4.452-.294-3.682,2.6.63,2.38,2.8.546,4.2.322,5.475-.882,10.907-2.086,16.41-2.8,3.654-.462,7.225-.938,8.471,4.55,1.036,4.578.476,6.329-4.438,6.651-4.116.266-8.149,1.526-12.237,2.31-3.36.644-7.995-.518-6.693,5.895.378,1.89-2.506,2.38-4.284,2.716-7.491,1.4-15,2.66-22.5,3.99-4.69.84-8.051-2.8-12.419-4.522l19.35-3.962c-8.485-3.864-16.606-7.687-26.183-6.707-9.045.938-17.81,5.125-27.4,1.512l50.783-9.171c-6.511-4.074-12.041-.784-17.208-.112-12.811,1.666-25.539,4.2-38.224,6.721a18.44,18.44,0,0,1-9.731-.784c4.62-2.8,10.039-1.89,15.4-4.634-6.455-.588-12.531,1.554-17.04.182-7.673-2.366-14.841-1.33-22.038-.364-14.673,1.96-29.543,3.682-43.7,7.715-12.6,3.612-25.9,5.979-37.524,12.965-8.541,5.138-18.734,4.48-28.087,6.861a14,14,0,0,0-7.673,4.452l43.4-7.491.434,2.072c-21.24,7-44.258,6.8-65.386,14.463,6.567,1.274,12.727-.91,20.582-2.338-11.2,10.5-21.912,17.726-36.32,18.5-9.115.49-10.767,1.82-17.166,8.835,9.493-.224,17.964-2.8,26.6-4.074,7.771-1.12,15.514-2.506,23.214-4,2.044-.406,3.164-.35,3.262,1.96h0l-1.5,1.722c-2.94,3.486-7.393,4.424-11.117,6.623-13.259,2.282-26.617,5.461-40.1,6.707-12,1.12-16.046,9.983-21.394,18.748l40.73-7C103.5,135.819,99.091,138.143,96.893,141.882Z" transform="translate(2.746 0.014)" fill="#fce5b5"/><path d="M428.432,292.934c1.6.49,3.78-.756,5,2.044-8.023,3.892-17.264,2.52-25.2,6.833,19.126.14,37.552-6.4,56.706-6.441-16.55,5.769-34.247,6.553-50.895,11.859,7.911,2.6,15.4-2.3,23.228-1.4.392,3.6-5.013,2.156-3.7,5.223s4.634-.1,6.777.938c0,3.038-2.044,3.038-3.836,3.346l-31.405,5.6c-1.68.294-4.62-.448-4.2,2.17.518,3.388,3.15,1.19,4.97.868,7.743-1.4,15.4-2.8,23.242-3.976,2.534-.406,6.847-1.918,7,1.4.224,3.654.6,9.2-5.6,10.235-9.115,1.526-18.2,3.15-27.317,4.718-5.685.966-11.369,2-17.082,2.8a4.774,4.774,0,0,0-4.536,5.223c.5,3.206,3.836,1.792,5.839,1.5,8.219-1.26,16.424-2.646,24.558-4.368,2.968-.616,3.528.182,3.794,2.9.938,9.521-3.472,15.527-12.783,17.11q-11.95,2.1-23.872,4.2c-2.492.434-5.167,1.61-4.494,4.2s3.374.882,5.32.532c14.729-2.6,29.473-5.125,44.4-7.7-2.24,14-13.847,11.887-22.654,14-6.049,1.47-12.293,2.072-18.468,3.024-1.988.308-3.43,1.246-4.55,4.2l35.718-5.979c-9.9,9.661-21.534,15.654-33.6,20.54a150.99,150.99,0,0,1-57.49,10.557,115.3,115.3,0,0,1-33.6-4.9c-8.4-2.562-15.99-1.582-23.942-.252-8.4,1.4-16.8,3.066-25.2,4.732a6.063,6.063,0,0,1-5.6-1.778c10-3.948,20.708-3.374,31.881-7-8.317-4.032-14.9-7.869-23.41-5.363-5.713,1.694-11.789,2.212-17.7,3.262.336-3.234,3.29-3.108,5.265-3.654,54.045-15.135,96.609-46.05,127.146-93.1,7-10.739,14.435-21.464,17.082-34.457l1.47-1.4a29.865,29.865,0,0,0,13.931-2.8h-.084c2.8-.378,5.979,1.064,8.4-1.4h0c3.29.448,7.8-1.624,8.4,4.2h0l-24.4,4.508c2.982,2.8,5.8,2.464,8.863,1.918,5.18-.91,10.291-2.506,15.64-2.282h0c.112,1.96-1.008,2.8-2.8,2.912-7.813,2.352-16.312,1.708-23.8,5.447-1.778.714-4.452-1.848-5.6,1.484.42.728.854.756,1.288,0,1.526-.21,3.234.1,4.2-1.526a77.665,77.665,0,0,0,23.8-4.2c5.6.28,10.893-1.022,16.2-2.436,3.724-.98,6.287,0,7.519,3.794L399.869,280l.378,1.792c9.241-2.492,18.944-2.352,28-5.671l6.021.434-4.886,1.736,3.3,2.17c-6.637,5.307-15,3.738-22.5,5.6-2.8,0-2.982,1.988-2.926,4.1-.084.21-.252.406-.252.616s.168.518.28.518c8.149.084,15.99-1.708,23.8-3.948,2.8,3.822.084,4.2-2.8,4.424-5.125,1.134-10.641.6-15.331,3.654C418.281,295.02,423.531,294.964,428.432,292.934Z" transform="translate(90.324 104.445)" fill="#fce5b5"/><path d="M328.808,141.476c-1.484.462-2.9,2.03-4.522.868s0-2.478.266-3.71c1.05-2.31,5.012-.2,5.32-3.416.168-1.862-1.4-2.212-2.8-2.156-2.94.126-5.279-.756-5.152-4.046.1-2.66-3.22-6.385,2.142-7.827,1.792-.476,1.722-2.394,1.5-4.2-.756-6.091-3.262-7.379-10.865-6.077-5.026.868-9.941,4.074-15.261,1.106h0c-1.568-7.071,2.086-9.045,8.471-9.941,12.6-1.75,25.034-4.41,37.566-6.511,3.444-.588,6.525-.588,5.153-5.7-1.274-4.718-3.878-4.564-7.855-3.822-15.219,2.8-30.523,5.307-45.77,7.995-2.086.378-4.354,1.5-5.068-1.526a112.927,112.927,0,0,0-4.2-14.6c-1.162-3.066,3.122-2.926,4.914-3.262,11.8-2.212,23.7-3.99,35.549-5.993,3.864-.658,7.659-1.75,11.537-2.38,2.9-.462,5.181-1.3,4-4.788-.952-2.8-1.736-5.4-6.259-4.508-14.267,2.8-28.689,5.026-43.012,7.6-3.724.672-6.567,1.19-7-4.116-.392-4.438-2.422-8.961,4.2-10.361a31.6,31.6,0,0,0,4.354-1.722c-1.652-.882-2.8-1.568-4.06-2.128-7.421-3.388-7.645-5.489-1.078-10.193s21.534-4.8,26.953-.28c-1.134,2.044-4.2,1.932-4.943,4.466-.5,1.61-1.19,3.094,0,4.606s2.31.994,3.766.658c2.7-.63,5.517-.742,8.177-1.4,4.536-1.218,7.9-.518,10.7,3.808,4.312,6.679,10.655,7.911,18.328,6.273,13.315-2.8,26.771-5.068,40.184-7.407,5.909-1.036,8.751,4.452,13.4,7.757L351.63,64.734c7.085,4.914,12.531,8.779,18.048,12.517,6.567,4.424,13.469,1.75,20.2.644,11.859-1.96,23.8-3.682,35.465-6.567,7.491-1.848,12.363.854,18.048,7L393.746,87.5c3.934,6.035,8.4,9.535,16,7.239a54.059,54.059,0,0,1,12.965-2.114c6.777-.322,9.8,3.29,9.2,10.137-.28,3.248,6.091,9.031,10.3,9.367,1.974.154,4.536-.756,5.377,1.946,1.134,3.57-2.436,1.568-3.486,2.646-.63.644-1.764,1.008-1.218,2.142.728,1.5,1.82,2.9,3.682,2.646,2.282-.308,4.718-.336,4.774,2.38,0,3.178-3.08,1.946-4.886,2.366-3.822.882-7.687,1.61-11.537,2.408-2.408.49-5.965-.574-4.788,4.326.392,1.6-2,1.4-3.276,1.666-7.267,1.4-14.533,2.8-21.814,4-2.24.378-4.592.35-6.343,3.724,7.673.966,14.3-2.268,21.17-2.8,3.892-.294,7.169-1.89,10.753,1.764,2.506,2.548,6.567-.112,9.913-.308s6.777-1.4,10.165-2.17c4.2-.9,7.323.112,8.4,4.774-3.29,2.086-7.169,1.6-10.739,2.478-14.547,3.57-28.269,10.473-43.614,10.977a3.4,3.4,0,0,0-2.59,1.9c-.686,2.8,3.248.98,3.514,3.528-14.085-1.526-27.317,3.962-41.164,4.8-.616-3.052,1.47-3.206,3.234-3.5,6.833-1.148,14-1.274,20.428-3.64s12.6-6.147,19.77-6.721c1.834-.154,3.64-.6,5.475-.868s5.026-.294,4.858-2.492a4.718,4.718,0,0,0-5.895-4.41c-6.147,1.064-12.307,2.114-18.454,3.192-.91.168-2.254,1.008-2.6.672-8.6-8.051-17.418-.112-26.1-.392-1.288,0-3.108,1.12-3.612-.5-.63-2.058,1.4-2.66,2.982-2.912,4.354-.644,8.9-.616,13.007-1.96s9.479.728,11.271-6.413c.756-3,7.561-1.862,11.565-2.8a47.03,47.03,0,0,0,8.471-2.17c-1.05-2.674-2.8-3.29-5.083-3.6-3.08-.42-7.659-.14-2.114-4.9,2.03-1.736-.63-3.374-2.394-3.374-8.093,0-13.161-2.8-14.771-11.691-.9-4.97-14.9-8.737-19.6-6.287a6.692,6.692,0,0,0-1.176.742c-1.3,1.176-4.592,18.916-4.06,20.61.8,2.52,2.8,1.932,4.578,2.1,1.4.112,2.982-.154,3.4,1.638s-1.022,2.212-2.38,2.8-3.57.742-3.654,2.688c-.1,2.59,2.2,2.492,4.018,2.8a2.044,2.044,0,0,1,2,2.338,2.688,2.688,0,0,1-2.324,2.282c-3.6.84-7.225,1.5-10.851,2.226-4.2.868-8.709.21-11.285,5.895-1.078,2.38-7,2.6-10.627,3.808-1.4-1.568-1.022-3.29-.462-5.054C333.05,144.346,332.14,142.218,328.808,141.476Z" transform="translate(114.508 13.008)" fill="#fce5b5"/><path d="M356.8,311.33l-1.47,1.4c-14.211-2.24-27.2,3.094-40.6,5.993,9.591-.8,19.014-2.66,28.465-4.354,2.212-.392,5.307-.812,5.7,2.212.322,2.576-2.8,2-4.326,2.17-11.117,1.316-21.8,4.774-33.3,4.606s-22.878,2.156-34.317,3.388q0-39.106.1-78.226c2.954-.2,5.965.49,8.849-.938a5.32,5.32,0,0,0,2.982-5.713c-.6-2.912-3.15-1.246-5.083-.98-2.478.35-5.012.35-7.519.5-.616-13.413-.686-26.813,0-40.212,3.3-1.54,10.263-.742,9.7-3.5-1.106-5.6-6.413.952-9.689-.994-1.68-7.421.938-14.715.672-22.136s-.154-14.785-1.2-22.136a5.965,5.965,0,0,1,2.926-6.581c2.534-1.3,4.4.868,5.979,2.38A85.577,85.577,0,0,1,299.6,166.332c9.479,16.06,12.111,33.715,12.6,51.959.336,13.819,6.469,17.936,19.266,13.4a64.765,64.765,0,0,0,12.265-.826c9.339-1.988,18.832-3.206,28.269-4.732,0,5.125.07,10.249.112,15.4v1.4c-3.556-.392-3.4-3.64-3.878-5.825-.686-3.206-1.876-4.2-5.181-3.612-9.955,1.89-19.924,3.654-29.935,5.223-4.2.658-4.718,3.318-4.088,6.539.56,2.884,1.582,5.055,5.671,3.976,5.6-1.4,11.4-1.722,16.956-3.136,4.48-1.148,5.251,1.638,6.035,4.578.9,3.4-1.176,4.494-4.2,4.83a56.387,56.387,0,0,0-8.849,1.4c-3.15.882-8.233-.182-7.155,5.937.924,5.251,2.646,9.423,9.367,7.757,2.45-.616,5.167-.42,7.449-1.4,5.223-2.2,7,.238,7.9,4.887,1.092,5.349-1.918,7-6.287,7.757-4.76.826-9.479,1.974-14.267,2.506-4.2.462-5.068,2.716-4.354,6.161.8,3.794,3.976,2.73,6.231,2.38,6.819-1.078,13.567-2.534,20.344-3.85l-.056,2.8-18.972,3.626c4.956,2.464,9.563.658,14.127,0s2.73,1.4,1.96,3.318l.126,2.7-.168.252c-9.115-.154-17.81,2.464-26.6,4.074-1.554.28-3.836-.084-3.626,2.17.238,2.8,2.59,1.96,4.382,1.68l23.144-3.822C357.729,307.648,357.267,309.5,356.8,311.33Z" transform="translate(110.286 58.214)" fill="#fae6bc"/><path d="M310.08,279.078c11.439-1.232,22.892-3.556,34.317-3.388s22.178-3.29,33.3-4.607c1.484-.168,4.648.406,4.326-2.17-.392-3.024-3.486-2.6-5.7-2.212-9.451,1.694-18.874,3.556-28.465,4.354,13.371-2.9,26.365-8.233,40.6-5.993-2.646,12.993-10.123,23.718-17.082,34.457-30.551,47.045-73.1,77.96-127.146,93.1-1.974.546-4.928.42-5.264,3.654-5.923.98-11.929,1.6-17.726,3.066a24.11,24.11,0,0,1-12.9-.336c1.064-3.836,4.55-3.416,7.309-3.92,6.343-1.176,12.769-1.96,19.126-3.122,3.514-.644,5.951-1.5,2.912-6.175-5.279-8.163-11.523-12.083-21.478-8.975-5.237,1.638-10.865,2.044-16.312,3.08-2.506.476-5.685,2.954-6.791-1.4-1.246-4.816,3.094-5.11,6.035-5.671,11.1-2.086,22.276-3.864,33.421-5.783,1.82-.322,3.668-1.4,5.391-1.134,8.807,1.19,5.685-6.147,5.965-9.507.266-3.122-4.032-1.988-6.315-1.61-8.4,1.4-16.8,3-25.2,4.62-1.638.308-3.43,1.092-3.78-1.33-.266-1.848,1.4-2.016,2.8-2.268,10.221-1.834,20.428-3.752,30.649-5.489,2.3-.392,4.592-.406,5.993-2.688-1.4-2.674-4.956,1.764-5.6-1.6-.56-2.8,3.164-2.128,4.452-4.3-5.068-3.052-9.731.574-14.449.756-2.352.1-5.8,2.31-6.483-.8s3.15-2.3,5.264-2.688l46.289-8.611c-1.092-3.43-3.038-2.2-4.676-1.9q-22.486,3.99-44.972,8.023c-1.75.322-4.046,1.82-4.76-.686-.9-3.248,2.674-2.8,4.2-3.164,7.589-1.652,15.5-1.764,22.836-4.676a96.161,96.161,0,0,0,25.062-4.55c15.4-5.181,28.871-12.447,33.015-30.215C309.254,288.529,307.434,283.517,310.08,279.078Z" transform="translate(77.189 105.868)" fill="#f9dfa7"/><path d="M.282,182.457c.2-6.455,1.708-12.153.2-17.95-.644-2.464.336-4.536,2.492-6.651,4.55-4.452,3.892-8.877-1.022-11.845-2.38-1.4-1.4-3.682-1.512-5.6s.406-3.486,2.884-3.892c7.981-1.288,15.92-2.912,23.914-4.2,3.416-.518,6.4-.392,3.3,4.62-1.988,3.22-1.148,5.237,3.5,3.976,4.2-1.134,8.723-1.092,12.979-2.128,3.864-.952,4.2.868,3.318,3.57-1.078,3.528-2.1,7.141-6.273,8.611s-3.92,5.965-5.6,9.129c-.728,1.4.21,2.52,1.974,2.87,1.274.266,3.78-1.064,3.444,1.876a4.438,4.438,0,0,1-3.64,3.71c-5.026,1.526-4.732,1.47-1.848,6.217,1.806,2.982-1.246,4.116-3.318,4.69a57.658,57.658,0,0,1-9.549,1.624c-5.153.5-9.8,1.078-13.161,6.189-2.142,3.276-7.127,3.164-10.389,2.31C-1.65,188.674,1.641,184.319.282,182.457Z" transform="translate(0.087 52.884)" fill="#fce5b5"/><path d="M60.448,304.882c-7.561,1.4-14.323,2.8-21.142,3.836-3.15.5-6.091.728-3.122,4.858,1.932,2.716.308,3.962-1.96,4.4-6.567,1.288-13.161,2.394-19.77,3.374-2.716.406-4.452-.952-4.788-3.808s.56-4.4,3.71-4.522c2.366-.084,6.2.406,5.377-3.374-.77-3.5-1.092-8.093-6.1-9.213-6.931-1.54-9.241-6.371-5.6-12.6,2.03-3.514,1.624-6.483-1.4-8.527a8.891,8.891,0,0,1-3.752-9.563c.518-2.352,4.522-2.436,7.267-2.8,3.682-.532,6.217.462,7.449,4.34,1.064,3.388,3.136,4.2,7,3.094,5.251-1.568,10.893-1.806,16.3-2.968,4.872-1.036,6.245,2.184,7.155,5.6,1.05,3.934-2.016,3.78-4.62,4.06-1.834.21-3.584.966-5.4,1.2-10.4,1.4-10.627,2.17-5.377,11.2,1.4,2.338,2.3,2.968,4.746,2.17a32.2,32.2,0,0,1,5.475-.784C54.315,293.05,54.315,293.05,60.448,304.882Z" transform="translate(0.659 106.779)" fill="#fce5b5"/><path d="M348.679,263.994c-6.777,1.316-13.525,2.8-20.344,3.85-2.254.35-5.433,1.4-6.231-2.38-.714-3.444.224-5.7,4.354-6.161,4.788-.532,9.507-1.68,14.267-2.506,4.368-.77,7.379-2.408,6.287-7.757-.952-4.648-2.674-7.085-7.9-4.886-2.282.952-5,.756-7.449,1.4-6.721,1.666-8.4-2.506-9.367-7.757-1.078-6.119,4-5.055,7.155-5.937a56.387,56.387,0,0,1,8.849-1.4c2.982-.336,5.055-1.4,4.2-4.831-.784-2.94-1.554-5.727-6.035-4.578-5.6,1.4-11.411,1.666-16.956,3.136-4.088,1.078-5.111-1.092-5.671-3.976-.63-3.22-.126-5.881,4.088-6.539,10.011-1.568,19.98-3.332,29.935-5.223,3.3-.63,4.494.406,5.181,3.612.476,2.184.322,5.433,3.878,5.825.266,15.71-3.752,30.8-7,45.953A8.557,8.557,0,0,1,348.679,263.994Z" transform="translate(125.496 83.359)" fill="#f9dfa7"/><path d="M92.944,336.977c2.268.224,5.167-.854,5.783,2.8-4.452,2.2-9.8.826-14.939,4.06a41.737,41.737,0,0,0,16.2-2.618c1.4.126,3.01.112,3.22,1.9.168,1.47-1.2,1.876-2.31,2.072-4.55.8-9.661.448-13.553,2.45-8.989,4.648-18.51,6.8-28.3,8.163-8.4,1.176-16.55,3.892-25.2,2.73,7-4.886,15.892-3.36,23.424-6.735-2.254-4.2-5.181-.392-7.757-1.246-.35-2.716,2.8-1.736,3.836-4.2-8.191-1.5-15.7,3.024-23.424,1.862.084-.518.154-1.036.238-1.554h2.8c1.568.126,3.206.434,4.2-1.232,2.8-.434,5.923,1.05,8.4-1.4,4.284.126,8.527,0,13.119-2.716a23.145,23.145,0,0,0-13.147,2.674c-2.8.42-5.923-1.064-8.4,1.4l-4.2-.084c1.008-4.662,5.139-1.708,7.477-3.08,2.562-1.484,5.993-.294,8.611-2.45-11.677-8.261-23.1.966-35.872-.238,8.4-3.64,16.172-3.08,23.41-5.152,2-.574,3.136-.77,1.736-2.94.112-3.906,4.62-1.764,5.783-4.2h0c3.262-.5,6.875,1.274,9.8-1.4a31.111,31.111,0,0,0,15.612-2.38c8.653-4.074,14.3,4.48,21.842,4,0,0,.154.294.28.574l-2.94,1.4c1.4,1.582,4.312-.5,5.1,2.478-3.122,2.436-7.589,1.232-10.613,3.836h.07a21.548,21.548,0,0,0-13.875,3.01l-7,1.652.21.728H70.71a28.422,28.422,0,0,0,15.4-2.6h-.084c2.366-.42,5.111.952,7-1.4Zm-11.005-9.129c-5.6-1.316-9.115,0-13.2,1.61C73.342,330.844,76.8,328.856,81.939,327.848ZM65.907,330.8c-2.226-1.05-3.7-1.078-5.265-.238,1.386,1.288,2.828.784,5.265.238Zm-9.269,1.134c-1.316-.266-2.8-1.092-4.284.084,1.316,1.246,2.744.714,4.284-.084Z" transform="translate(5.267 129.009)" fill="#fce5b5"/><path d="M438.994,148.13c2.66,5.04,2.254,10.781,3.668,16.1.266,1.05.252,2.968-.322,3.318-5.531,3.3-.2,4.2,2.7,6.539-13.175,2.646-24.7,7.351-37.188,3.5-.84-.266-1.764-.084-2.184-1.3-1.568-4.634-1.61-4.536-6.189-3.668a41.081,41.081,0,0,1-14.309.756l31.811-5.6c5.223-.91,10.431-1.89,15.654-2.8,1.4-.238,3.08-.308,2.8-2.226s-1.932-1.2-3.248-.98c-15.4,2.688-30.915,5.293-46.345,8.037-2.268.406-4.424,1.4-7.519-.6,7.9-4.872,17.4-2.324,25.609-7.085-6.077-2.87-11.2-.2-15.976.714-5.251,1.022-5.685-.784-5.139-4.8a41.444,41.444,0,0,0,18.09-3.6c-6.623.882-13.441.672-19.714,3.5-2.058-.308-4.438,1.008-6.357-1.4,2.66-2.562,5.909-2.8,9.2-2.884,9.325-1.246,18.4-4.3,28-4.2.238,2.044,1.106,2.45,3.276,2.086C423.117,150.314,431.069,149.348,438.994,148.13Z" transform="translate(149.992 59.292)" fill="#fce5b5"/><path d="M350.368,160.053c-1.4,5.195,1.946,9.451,2.912,14.169,0,1.4.2,2.94-1.246,3.738a67.739,67.739,0,0,1-32.357,8.807,131.73,131.73,0,0,1-5.783-20.778c3.612-.56,7.253-1.008,10.851-1.722a15.515,15.515,0,0,0,3.556-1.75c-5.6-4.956,1.526-3.066,2.478-4.452.812-1.162,1.974-2.254.952-3.584s-1.848.448-2.8.644c-6.231,1.4-12.5,2.52-18.776,3.752-.5-.952-1.022-1.9-1.526-2.87,6.1-1.022,14.071,2.7,16.928-6.679.1-.294,1.288-.224,1.96-.378,5.32-1.288,10.613-2.8,16.158-2.8a11.353,11.353,0,0,1,1.2.2c-.21,2.94,3.066,2.3,4.088,3.962-.532.476-2.926-.5-1.3,1.666C347.694,154.957,347.176,158.107,350.368,160.053Z" transform="translate(123.499 58.5)" fill="#f9dfa7"/><path d="M339.51,262.223c3.262-15.177,7.281-30.243,7-45.952v-1.4c5.6.42,10.977-1.148,16.368-2.352,3.934-.868,6.749-.98,8.023,4.4,1.4,5.895-2.38,4.746-5.279,5.279-2.478.462-4.984.882-7.491,1.26-5.6.812-8.653,2.52-6.427,9.409,1.26,3.906,2.8,4.83,6.147,4.312a60.206,60.206,0,0,0,10.193-1.848c4.48-1.526,5.6-.322,6.833,4.3,1.652,6.581.252,8.989-6.567,9.045-3.612,0-7.183,1.89-10.823,2.156-4.438.322-6.735,1.022-7.2,6.595C349.843,263.189,343.066,260.249,339.51,262.223Z" transform="translate(135.855 84.877)" fill="#fce5b5"/><path d="M.463,124.672c-1.764-6.651,1.5-9.325,9.3-10.151,11.2-1.2,22.178-4.018,33.267-6.035,1.3-.224,3.276-.322,3.962.42,1.4,1.6-.658,2.8-1.4,4.1-2.8,5.307-7.365,9.423-9.451,15.275-1.26,3.528-5.6,2.8-8.569,3.472-6.749,1.484-13.791,1.708-20.414,3.528-5.6,1.554-7.309.1-6.763-5.307A43,43,0,0,0,.463,124.672Z" transform="translate(0.004 43.365)" fill="#fce5b5"/><path d="M46.287,227.745c3.808-.686,7.645-1.316,11.439-2.1,1.4-.28,2.884-.91,3.584.742.854,2.072-.882,3.052-2.394,3.444-3.752.966-7.589,1.61-11.4,2.394-4.676-1.05-8.975,1.792-13.6,1.33l-23.69,4.354c8.065,1.89,15.5-2.3,23.4-1.4.182,3.43-4.76,1.876-4.858,5.055.21.322.35.882.672,1.022,2.1.826,5.839-2.8,6.273.966.364,3.234-3.892,2.184-6.189,2.618-8.149,1.6-16.4,2.688-24.46,4.606-4.34,1.036-4.774-.742-4.746-4.1V220.59c9.8,2.632,18.692-2.1,29.795-2.45-6.343,3.472-11.691,3.248-16.8,4.116-2.17.378-4.62.63-4.326,3.346.336,3.22,2.912,1.96,4.9,1.68,5.363-.77,10.557-3.36,18.034-1.19-9.367,4.746-18.734,3.3-26.6,7.631C19.278,233.457,32.79,230.657,46.287,227.745Z" transform="translate(0.133 87.306)" fill="#fce5b5"/><path d="M.405,260.834c0-10.235,0-10.137,9.8-11.677,7.771-1.218,15.472-2.8,23.242-4.032,1.848-.28,4.634-1.162,5.489,1.5.924,2.9-2.282,2.058-3.5,3.08-2.38,2.016-2.282,3.976.938,5,1.33.42,2.982.378,2.968,2.226,0,2.254-2.142,2.226-3.6,2.576a86.919,86.919,0,0,1-10.151,2.058,12.713,12.713,0,0,0-9.563,5.25c-2.8,3.514-9.353,4.8-14.085,2.8C-1.709,267.989,1.637,263.116.405,260.834Z" transform="translate(0.076 97.957)" fill="#fce5b5"/><path d="M30.358,324c-3.878-6.609-9.7-2.548-14.771-2.716-1.946-.07-5.012,3.136-5.6-.84-.392-2.87,3.206-1.4,4.886-2.2,3.108-1.4,10.067.9,7.085-6.847l3.08-.6c-.14-.168-.224-.462-.392-.5a2.1,2.1,0,0,0-2.716,1.064c-4.312-.406-8.583.364-12.909.784,3.262-3.066,7.519-2.6,11.327-3.514,11.2-2.66,22.878-2.436,34.233-4.2,1.4-.224,2.8,0,3.724-1.4h0c5.937-2.8,7.309,6.1,12.769,4.858-8.947,1.988-17.922,3.01-26.6,5.152-3.57.882-9.367-1.19-10.137,4.2-.154,1.092,6.861-.588,10.543-1.106,6.637-.938,13.2-2.282,19.84-3.248,1.96-.294,4.662-.686,5.04,2.24.42,3.15-2.688,1.932-4.046,2.254-4.7,1.12-9.535,1.722-14.309,2.506Zm-4.914-8.989c1.806.644,3.738.35,3.612.07C28.384,313.64,27.1,314.13,25.444,315.012Z" transform="translate(3.614 121.053)" fill="#fce5b5"/><path d="M324.063,110.32c3.374.742,4.2,2.87,3.248,5.979-.56,1.764-.91,3.486.462,5.054l1.778,1.834c1.288,5.279,4.2,9.045,9.633,10.613-1.4,1.12-1.092,2.8-1.582,4.326-10.851.686-21.408,3.108-32.049,5.138-1.778.336-4.046,1.4-4.746-.994-.84-2.9,1.988-2.492,3.612-2.8,4.957-.952,9.955-1.778,14.939-2.632,2.8-.462,6.259-.728,5.741-4.466-.574-4.06-3.7-1.96-6.035-1.554-5.447.966-10.921,1.722-16.34,2.8-2.072.392-4.032.42-4.592-1.736-.616-2.422,1.4-2.982,3.388-3.36q10.515-2.072,21-4.2c.854-.168,1.9-.126,2.072-1.946-4.2-1.68-8.2,1.3-12.321,1.022-1.778-.112-3.612.854-5.419.854s-4.746.966-4.8-2.282c0-2.674,2.282-3,4.494-3.234,3.892-.434,7.785-.882,11.635-1.61C321.795,116.383,325.029,115.122,324.063,110.32Z" transform="translate(119.254 44.163)" fill="#f9dfa7"/><path d="M37.911,331.394c-8.485-.546-15.4,6.357-24.88,4.62,11.453-10.627,27.415-5.993,41.36-13.091-15.6-2.016-29.571,8.485-43.25.6,6.119-1.974,12.419-1.078,18.356-3.136,7.127-.7,14.239-1.4,21-3.948,5.6,2.8,11.061,4.592,17.586,2.66a157.036,157.036,0,0,1,20.358-3.962c2.408-.378,5.293-1.4,8.037,1.512-1.4.476-2.254.77-3.066.994-11.943,3.346-25.286,1.47-35.928,9.731-.6.462-1.806.168-2.8.224-2.94,2.212-7.1-.14-9.8,2.646h0C42.573,330.54,39.983,329.42,37.911,331.394Z" transform="translate(4.463 125.925)" fill="#fce5b5"/><path d="M356.034,209.106c-9.437,1.526-18.93,2.8-28.269,4.732a64.773,64.773,0,0,1-12.265.826l3.052-5.6c4.914.84,9.493-1.512,14.337-1.512,1.834,0,3.934-.7,4.564-2.562.952-2.8-1.708-2.506-3.29-3.136-2.128-.84-2.086-3.3-.77-3.724,5.6-1.806,7.925-9.129,14.911-8.695,2.184.14,4.452-.952,6.679-1.484a4.424,4.424,0,0,1,1.134.238l.084,15.4Z" transform="translate(126.248 75.226)" fill="#f9dfa7"/><path d="M383.011,157.231c-1.736-.084-3.64.56-5.531-1.4,4.592-3.99,10.277-2.66,15.149-3.99,3.71-1.008,3.164-.784,4.382-4.69.588-1.848,4.2-2.8,5.6-5.209,3.108-1.47,7-.392,9.8-2.8h0a42.438,42.438,0,0,0,16.8-2.8c5.881-1.512,5.811,3.346,6.637,6.651.364,1.4-1.862,1.512-3.22,1.764-7.491,1.4-15.4,1.47-21.562,7C401.618,153.395,392.111,154.3,383.011,157.231Z" transform="translate(151.049 54.462)" fill="#fce5b5"/><path d="M345.734,149.412c-5.6,0-10.837,1.526-16.158,2.8-.672.154-1.862.084-1.96.378-2.8,9.381-10.823,5.6-16.928,6.679l-7.169-11.131a3.739,3.739,0,0,1,.686,0c7.687,1.4,15.962-7.6,23.27,1.26.154.2.882,0,1.33-.126a83.909,83.909,0,0,1,10.725-2.114c4.662-.336,4.326-2.8,3.192-5.909,5.391-.938,10.753-2.058,16.172-2.716,1.638-.21,4.592-1.778,5.026,1.4.322,2.38-2.212,3.332-4.2,3.78a69.107,69.107,0,0,1-10.109,1.638C346.742,145.492,345.188,146.332,345.734,149.412Z" transform="translate(121.455 55.224)" fill="#fae6bc"/><path d="M316.524,178.745a67.739,67.739,0,0,0,32.357-8.807c1.4-.8,1.19-2.366,1.246-3.738l2.8.1v2.534c-2.7,2.45-1.064,5.6-1.246,8.4-9.409-.462-18.356,2-28,3.808,2.478,3.472,5.167.308,7.295,1.4-3.346,5.279-3.094,4.508,2.52,6.413,7.1,2.408,13.665-.77,20.47-.35,5.026,4.3,10.515-1.834,16.62.98L354.4,192.943l-.238-.2a4.2,4.2,0,0,0-5-1.26c-10.3,3.416-20.876-1.148-31.167,1.26-.588-2.8-1.89-5.377-1.316-8.3.686-.406,1.876-.714,1.96-1.218.238-1.47-1.12-1.4-2.128-1.624A21.651,21.651,0,0,0,316.524,178.745Z" transform="translate(126.652 66.523)" fill="#fae6bc"/><path d="M378.43,125.359c5.6-3.094,12.055-3.5,18.006-3.794,10.529-.546,20.89-2.66,33.449-3.514-6.049,4.564-5.951,6.665.91,6.455-14,3.066-27.093,6.791-40.884,6.441-1.3,0-3.094.6-3.7-1.008-.826-2.212,2.8-1.3,2.618-3.948-3.206-1.4-6.9-.14-10.389-.6Z" transform="translate(151.429 47.256)" fill="#fce5b5"/><path d="M341.138,258.061c.77-1.932,2.674-4.018-1.96-3.318s-9.171,2.478-14.127,0l18.972-3.542L383,247v1.4c-2.7,6.063,4.956.168,3.92,4.2C372.081,254.9,356.973,259.335,341.138,258.061Z" transform="translate(130.07 98.854)" fill="#fce5b5"/><path d="M62.405,129.355l-1.6.112-1.218,1.3h0c-7.7-.42-15,2.282-22.542,3.066-2.45.252-6.539,2.8-6.763-.434-.252-3.57.084-8.877,6.427-9.731,10.025-1.4,19.952-3.36,29.921-5.111C67.012,122.83,62.335,125.155,62.405,129.355Z" transform="translate(12.101 47.46)" fill="#fce5b5"/><path d="M354.112,189.152c-2.226.532-4.494,1.624-6.679,1.484-7-.434-9.255,6.889-14.911,8.695-1.316.42-1.4,2.884.77,3.724,1.582.63,4.2.294,3.29,3.136-.63,1.862-2.73,2.562-4.564,2.562-4.844,0-9.423,2.352-14.337,1.512,0-4.62.126-9.227.2-13.847,5.223-1.4,12.111.5,15.4-4.032,2.366-3.276,4.2-4.326,7.8-4.732,4.284-.49,8.5-1.652,12.741-2.534l.238.2C354.07,186.59,354.1,187.864,354.112,189.152Z" transform="translate(127.121 74.094)" fill="#fae6bc"/><path d="M328.593,42.46c-1.218-.2-3.738.6-3.57-1.652.2-2.8.658-6.119,4.592-6.8,10.179-1.792,20.316-3.724,30.495-5.447,2.7-.448,3.878,1.778,5.4,3.6,2.072,2.52,1.162,3.766-1.4,4.2C352.367,38.47,340.592,40.4,328.593,42.46Z" transform="translate(130.055 11.423)" fill="#fce5b5"/><path d="M434.822,127.779a4.663,4.663,0,0,1-4.2,4.018c-9.969,1.75-19.924,3.6-29.893,5.391-.672.112-1.68.35-2.016,0-8.4-8.4-17.054-.07-25.552-.378-3.136-.126-6.3,1.288-9.465,1.862-1.092.2-2.478.2-2.8-1.316s.966-2.128,2.044-2.324c11.089-2.016,22.556-6.581,33.239-5.181,12.139,1.582,22.752-2,34.037-3.388C433.659,126.057,434.682,126.239,434.822,127.779Z" transform="translate(144.392 50.548)" fill="#fce5b5"/><path d="M344.594,204.478l-.084-15.4c5.6-.938,11.285-1.974,16.956-2.8,1.68-.238,4.018-.882,4.816,1.4.882,2.562-1.554,3.052-3.15,3.64-4.032,1.4-4.732,3.024-.224,4.592,1.918.658,2.8,1.6,2.436,3.43-.294,1.61-1.666,1.932-3.122,2.17C356.4,202.462,350.475,203.484,344.594,204.478Z" transform="translate(137.856 74.449)" fill="#fce5b5"/><path d="M24.081,206.116h8.4c-4.2,9.157-4.2,9.213-19,11.089-2.338.308-4.508.266-5.993,2.6-1.316,2.072-3.626,3.542-5.853,2.394S.545,218,.475,215.847s-.854-4.872,2.562-5.489c1.54-.266,3.332.224,4.368-1.5h0c2.8-.434,5.979,1.064,8.4-1.4h-.084c2.8-.462,5.993,1.092,8.4-1.4Z" transform="translate(0.104 82.472)" fill="#fce5b5"/><path d="M.4,184.854c0-2.492-.126-4.13,0-5.727.308-3,3.948-4.508,4.816-3.486,6.287,7.407,13.105,1.218,19.6,1.33,2.674,0,6.595-2.562,7.365,2.058.7,4.27-3.318,3.752-6.133,4.7-7.477,2.506-15.486,1.9-22.864,6.609C-1.536,193.395,2.664,185.694.4,184.854Z" transform="translate(0.141 70.173)" fill="#fce5b5"/><path d="M351.995,185.317c-6.8-.42-13.371,2.8-20.47.35-5.6-1.9-5.867-1.134-2.52-6.413-2.128-1.05-4.816,2.114-7.295-1.4,9.591-1.806,18.538-4.27,28-3.808a8.689,8.689,0,0,1,1.176.224c-.42,3.4.644,6.567,1.4,9.8a9.281,9.281,0,0,1-.294,1.246Z" transform="translate(128.733 69.64)" fill="#f9dfa7"/><path d="M32.241,187.195c-1.022,3.318-4.074,2.324-4.41,4.606,1.176,2,3.654,0,5,1.82-.406.448-.77,1.246-1.26,1.4C23,196.561,14.417,198.13,5.807,199.53c-2.394.378-5.4.826-5.433-3.234,0-2.954-.756-6.931,3.654-6.707C13.325,190.079,22.272,186.929,32.241,187.195Z" transform="translate(0.135 74.917)" fill="#fce5b5"/><path d="M359.57,208.664c-2.492,0-4.9-.14-5.419-3.164-.644-3.766,3.01-3.29,4.676-3.612,9.941-1.918,20.008-3.164,29.935-5.125,3.122-.616,3.472.742,4.2,2.9.882,2.8-.826,3-2.8,3.36C379.858,204.855,369.693,206.774,359.57,208.664Z" transform="translate(141.684 78.693)" fill="#fce5b5"/><path d="M330.173,130.216c-5.377-1.568-8.4-5.335-9.633-10.613,2.8,0,5.965-1.666,7.575,2.562.728,1.89,2.8.77,4.312.476,5.6-1.078,11.341-2,17-3,2.394-.434,4.971-.742,5.685,2.268.868,3.626-1.876,3.962-4.578,4.424C343.726,127.513,336.95,128.913,330.173,130.216Z" transform="translate(128.265 47.748)" fill="#fce5b5"/><path d="M336.678,258.021c4.774-3.3,8.807,2.59,14.155.714,7.463-2.618,15.682-3.15,23.606-4.424,1.834-.294,4.592-1.47,5,1.68.322,2.534-1.848,3.276-4.13,3.612-7,1.022-14,1.75-20.638,4.2h0c-2.8.448-5.979-1.092-8.4,1.4h.084c-1.778-.35-4.732,1.036-4.97-1.736-.364-4.06-3.29-1.722-4.872-2.576v-2.632Z" transform="translate(134.655 101.596)" fill="#fce5b5"/><path d="M331.854,141.824H330.37c.336-3.262-1.652-5.727-2.8-8.471,8.863-1.3,17.894-1.4,26.6-3.836.868-.238,2.072-.084,2.142,1.092.168,2.926-3.122,2.184-4.284,3.85.518,3.08,3.71.686,5.237,2.8Z" transform="translate(131.078 51.807)" fill="#fce5b5"/><path d="M374.09,178.025c9.927-3.388,19.378-3.682,28.451-5.713,2.114-.49,2.086,1.4,1.106,2.632a22.528,22.528,0,0,1-19.742,9.213C380.867,183.99,378.01,180.587,374.09,178.025Z" transform="translate(149.692 68.937)" fill="#fae6bc"/><path d="M343.484,140.353c1.134,3.15,1.47,5.6-3.192,5.909a83.91,83.91,0,0,0-10.725,2.114c-.448.1-1.176.322-1.33.126-7.309-8.863-15.584.14-23.27-1.26a3.738,3.738,0,0,0-.686,0l-2.66-2.8c10.557-1.4,20.82-5.755,31.8-2.8,3.01.784,5.881-.8,8.793-1.4A6.531,6.531,0,0,1,343.484,140.353Z" transform="translate(120.694 56.135)" fill="#f9dfa7"/><path d="M336.915,132.2c1.19,2.8,3.178,5.209,2.8,8.471-4.508,2.8-9.451,1.2-14.169,1.162-2.8,0-2.8-.672,1.2-6.539l-22.332,3.71-.308-1.736c10.417-2.2,20.722-4.872,31.531-5.083a5.181,5.181,0,0,0,1.274.014Z" transform="translate(121.691 52.914)" fill="#f9dfa7"/><path d="M343.984,184.854c-.812-3.206-1.876-6.371-1.4-9.8,4.34-.364,8.653-.854,12.6-2.9h0c1.974.266,4.662-.91,5.713,1.232,1.61,3.29-3.64,1.918-3.654,4.466a4.747,4.747,0,0,0,.854.952c1.946,1.2,5.6-1.89,5.979,1.008.42,3.682-3.822,1.988-5.853,2.548a135.251,135.251,0,0,1-14.239,2.492Z" transform="translate(137.038 68.871)" fill="#fce5b5"/><path d="M397.363,142.013a9.8,9.8,0,0,0-6.9,1.764c0-1.946,0-3.906,0-5.853,9.913-1.876,19.826-3.78,29.753-5.6a14.743,14.743,0,0,1,4.83.1c1.4.224,2.884,1.05,2.492,2.7s-2.2,1.26-3.514,1.4c-5.5,1.736-11.691.728-16.8,4.074h0C403.9,141.089,400.345,139.464,397.363,142.013Z" transform="translate(156.243 52.907)" fill="#fce5b5"/><path d="M339.215,159.22c-3.192-1.946-2.674-5.1-2.688-8.093,7.575-.252,14.841-4.018,22.766-2.562-.7,3.472-3.766,1.652-5.335,3.388.616,1.932,4.662-.336,4.032,2.646-.476,2.282-2.8,1.736-4.606,2.03C348.652,157.414,343.933,158.338,339.215,159.22Z" transform="translate(134.652 59.333)" fill="#fce5b5"/><path d="M46.772,256h1.4v6.847c-6.749,1.3-13.525,2.534-20.26,3.934-2.464.518-3.29-.6-3.836-2.7-.588-2.324.14-3.416,2.478-3.878C33.344,258.8,40.051,257.4,46.772,256Z" transform="translate(9.561 102.455)" fill="#fce5b5"/><path d="M368.3,251.477v-1.4c-1.4-2.338-4.536-.406-6.441-2.576,2.8-4.424,7.869-3.038,11.719-4.06,7.071-1.876,14.435-2.646,21.674-3.864,1.68-.28,4.032-1.568,4.424,1.19.266,1.876-1.932,2.1-3.556,2.38-4.97.868-9.9,2.156-14.9,2.674S371.619,247.388,368.3,251.477Z" transform="translate(144.799 95.665)" fill="#fae6bc"/><path d="M352.642,174.911c-1.484-.252-3.5.462-3.892-1.834-.238-1.4.868-2.016,2.086-2.226,11.1-1.9,22.192-3.808,33.309-5.6a3.444,3.444,0,0,1,2.646,1.274c-10.781,5.4-23.158,4.4-34.219,8.471Z" transform="translate(139.539 66.143)" fill="#fae6bc"/><path d="M27.474,195.56c.238,2.45-.616,4.508-2.324,4.886-7.337,1.638-14.743,2.926-22.15,4.2a2.03,2.03,0,0,1-2.45-2.492c.238-1.932,1.708-2.6,3.388-2.87C11.751,198.01,19.577,196.792,27.474,195.56Z" transform="translate(0.198 78.271)" fill="#fae6bc"/><path d="M7.218,210.474c-2.282-.756-6.4,2.03-6.567-2.464-.126-3.374,3.458-2.8,5.909-3.164,5.223-.812,10.389-1.9,15.612-2.674,2.044-.308,4.592-.322,5.279,2.128s-3.01,1.54-3.528,3.43h.07c-2.8.476-5.979-1.106-8.4,1.4h.084c-2.8.49-5.993-1.092-8.4,1.4Z" transform="translate(0.264 80.859)" fill="#fce5b5"/><path d="M53.21,129.947c-.07-4.2,4.606-6.525,4.2-10.823l3.962-1.848c2.352,1.218,6.707-2.338,7.281,2.156s-2.072,7.925-6.735,9.045C59.1,129.163,56.137,129.471,53.21,129.947Z" transform="translate(21.296 46.868)" fill="#f9dfa7"/><path d="M355.51,265.269c12.335-1.246,24.32-5.4,36.936-4.578-11.775,5.377-24.908,4.676-36.922,8.821h0v-4.2Z" transform="translate(142.258 104.289)" fill="#fce5b5"/><path d="M386.6,137.392a3.122,3.122,0,0,1-3.038,2.8l-30.719,5.433c-1.148.2-2.548.518-2.884-.952-.406-1.806,1.176-2.436,2.506-2.674,10.445-1.862,20.918-3.626,31.363-5.461A2.7,2.7,0,0,1,386.6,137.392Z" transform="translate(140.01 54.615)" fill="#fae6bc"/><path d="M358.514,280.531c7.5-1.848,15.864-.28,22.5-5.6,1.4,1.624,1.4,4.284,4.088,4.662-1.218,2.8-5.1-1.988-5.741,2.212-7.757,2.24-15.6,4.032-23.8,3.948-.112,0-.28-.336-.28-.518a2.2,2.2,0,0,1,.252-.616l10.445-1.862C363.2,281.035,360.222,283.163,358.514,280.531Zm10.011,1.19c2.268-.14,3.794.938,5.881-1.19C372.25,280.713,370.737,280.04,368.525,281.721Z" transform="translate(142.166 110.03)" fill="#f4efe6"/><path d="M428.4,149.692c-7.925,1.162-15.878,2.184-23.8,3.542-2.17.364-3.038,0-3.276-2.086a6.057,6.057,0,0,0,.1-1.12c7-.966,14.239-.8,20.666-4.662C426.928,142.509,428.259,145.422,428.4,149.692Z" transform="translate(160.588 57.73)" fill="#f9dfa7"/><path d="M41.26,263.238v-6.847c3.682,0,7.085-1.988,10.879-1.4,2.282.35,4.2.98,4.2,3.556,0,2.212-1.61,3.108-3.654,3.4-3.388.476-6.777,1.008-10.165,1.512a9.808,9.808,0,0,1-1.26-.224Z" transform="translate(16.515 102.008)" fill="#f9dfa7"/><path d="M43.358,171.36H41.846l-22.878,3.976-.448-1.82c7.421-4.886,16.8-3.626,24.81-6.357C43.344,168.56,43.358,169.96,43.358,171.36Z" transform="translate(7.416 66.907)" fill="#fce5b5"/><path d="M400.778,136.28v5.853c-11.8,3.752-24.124,4.48-36.278,6.315,7.729-3.3,16.186-3.318,24.138-5.489,3.584-.966,9.9.952,9.465-6.427C398.173,136.49,399.881,136.364,400.778,136.28Z" transform="translate(145.855 54.551)" fill="#fae6bc"/><path d="M101.091,326.79c2.24.28,5.335-.952,5.447,3.08-11.425.112-22.486,2.506-33.477,5.335h.084c-2.366.462-5.082-.84-7,1.4h.084c-1.6-.266-4.676.952-2.8-2.8h-.07C76.057,332.32,88.826,330.934,101.091,326.79Z" transform="translate(25.15 130.781)" fill="#fce5b5"/><path d="M338.621,151.067c-1.022-1.666-4.3-1.022-4.088-3.962,4.69-1.974,9.8-2.114,14.659-2.8,1.834-.266,4.1,0,4.34,2.282s-2.226,1.75-3.6,2.086C346.182,149.512,342.4,150.269,338.621,151.067Z" transform="translate(133.86 57.728)" fill="#fce5b5"/><path d="M347.12,158.735,382.5,152.14c.126.63.266,1.274.392,1.918l-35.171,6.427Z" transform="translate(138.901 60.897)" fill="#fae6bc"/><path d="M279.88,387.883c-13.189.532-25.861,5.083-39.12,5.194,11.565-2.8,23.032-5.895,35-6.427C277.234,386.679,278.816,386.413,279.88,387.883Z" transform="translate(96.342 154.732)" fill="#f4efe6"/><path d="M398.94,105.7a35,35,0,0,1,19.6-3.584C412.521,106.066,405.857,106.64,398.94,105.7Z" transform="translate(159.636 40.8)" fill="#fce5b5"/><path d="M31.345,241.926c-9.8,2.156-19.6,4.2-30,3.626l29.669-5.363Z" transform="translate(0.541 96.129)" fill="#fae6bc"/><path d="M259.18,52.235c3.808-1.736,7.561-4.69,11.439-1.4a3.346,3.346,0,0,1-.336,4.48C265.789,58.269,262.974,53.425,259.18,52.235Z" transform="translate(103.712 19.767)" fill="#fce5b5"/><path d="M34.494,180.416c2.8-.154,5.517-.154,8.233-.518,1.96-.266,4.606-1.89,5.307.812.826,3.262-2.45,2.408-4.2,2.688-3.682.574-7.855,4.074-10.613-1.6Z" transform="translate(13.298 71.713)" fill="#f9dfa7"/><path d="M378.6,272.216c-9.1,3.318-18.8,3.178-28,5.671l-.378-1.792,28.367-5.195A8.245,8.245,0,0,0,378.6,272.216Z" transform="translate(140.141 108.417)" fill="#f4efe6"/><path d="M36.26,171.75v-4.2a7.406,7.406,0,0,1,1.036-.224c4.424-.476,8.807-2.1,14-.336C46.943,171.778,40.838,169.5,36.26,171.75Z" transform="translate(14.514 66.518)" fill="#f9dfa7"/><path d="M409.451,148.786a6.058,6.058,0,0,1-.1,1.12c-9.535-.168-18.608,2.884-28,4.2v-1.316c9.1-2.926,18.608-3.836,28-5.461A7.942,7.942,0,0,1,409.451,148.786Z" transform="translate(152.597 58.972)" fill="#f4efe6"/><path d="M426.03,172.02a66.927,66.927,0,0,1-22.64,2.464l22.234-4.354C425.75,170.76,425.89,171.348,426.03,172.02Z" transform="translate(161.416 68.096)" fill="#fae6bc"/><path d="M380,277.418l20.232-3.6c-6.189,4.2-13.231,3.738-19.826,5.671Z" transform="translate(152.057 109.586)" fill="#fae6bc"/><path d="M30.8,232.092c-7.9-.868-15.331,3.318-23.4,1.4l23.69-4.382Z" transform="translate(2.966 91.696)" fill="#f4efe6"/><path d="M342.56,169.485v-2.534c3.6-.7,7.211-1.4,10.809-2.128,1.148-.238,2.38-.714,2.8.91s-.686,2.1-1.946,2.282C350.3,168.533,346.424,168.995,342.56,169.485Z" transform="translate(137.076 65.87)" fill="#f9dfa7"/><path d="M420.74,114.838c-5.6,3.864-9.8,4-16.13,3.01A21.674,21.674,0,0,1,420.74,114.838Z" transform="translate(161.904 45.792)" fill="#fce5b5"/><path d="M336.54,274.487c7.491-3.738,15.99-3.094,23.8-5.447v1.246A77.667,77.667,0,0,1,336.54,274.487Z" transform="translate(134.667 107.673)" fill="#f4efe6"/><path d="M45.272,316.362c-6.791,2.492-13.9,3.248-21,3.948v-1.26l21-4.2Z" transform="translate(9.716 126.003)" fill="#f4efe6"/><path d="M379.37,156.16c6.273-2.8,13.091-2.618,19.714-3.5a41.444,41.444,0,0,1-18.09,3.6Z" transform="translate(151.805 61.105)" fill="#f4efe6"/><path d="M312.41,30.963a12.727,12.727,0,0,1,12.7-2.7C320.741,30.963,316.554,30.963,312.41,30.963Z" transform="translate(125.012 11.061)" fill="#fae6bc"/><path d="M374.881,284.116c-4.914,2.03-10.151,2.086-15.331,2.548,4.69-3.052,10.207-2.52,15.331-3.654A7.3,7.3,0,0,0,374.881,284.116Z" transform="translate(143.874 113.263)" fill="#f4efe6"/><path d="M402.37,139.414c5.125-3.346,11.313-2.338,16.8-4.074v1.26a42.438,42.438,0,0,1-16.8,2.814Z" transform="translate(161.008 54.175)" fill="#f4efe6"/><path d="M79.8,336.232a41.738,41.738,0,0,1-16.2,2.618c5.1-3.234,10.487-1.862,14.939-4.06Z" transform="translate(25.454 133.982)" fill="#f4efe6"/><path d="M395.39,139.623c2.982-2.548,6.539-.924,9.8-1.4-2.8,2.38-6.693,1.3-9.8,2.8Z" transform="translate(158.215 55.296)" fill="#f4efe6"/><path d="M30.269,326.954c2.072-1.974,4.662-.854,7-1.148-1.162,2.45-5.671.308-5.783,4.2a3.346,3.346,0,0,1-1.218-3.052Z" transform="translate(12.105 130.365)" fill="#f4efe6"/><path d="M380.525,123.29c-1.792,1.9-3.78,1.834-7.295,0h7.281Z" transform="translate(149.348 49.353)" fill="#fce5b5"/><path d="M25.9,339.972c-.084.518-.154,1.036-.238,1.554-1.022-.266-2.478-.448-1.778-1.918C24.373,338.558,25.325,339.188,25.9,339.972Z" transform="translate(9.488 135.689)" fill="#f4efe6"/><path d="M27.322,338.7l4.2.084h0c-1.05,1.666-2.688,1.4-4.2,1.232A5.176,5.176,0,0,1,27.322,338.7Z" transform="translate(10.921 135.547)" fill="#f4efe6"/><path d="M262.46,397.052l.5-.182.154.7a2.227,2.227,0,0,1-.546-.112C262.488,397.416,262.5,397.206,262.46,397.052Z" transform="translate(105.025 158.823)" fill="#fffffe"/><path d="M347.409,155.922l2.66,2.8,7.169,11.131c.5.966,1.022,1.918,1.526,2.87.322,2.8,2.2,4.886,3.724,7.113a131.738,131.738,0,0,0,5.783,20.778c0,.924.07,1.848.1,2.8l.168,2.8c-.574,2.926.728,5.6,1.316,8.3.084,3.766.154,7.533.238,11.3-.07,4.62-.14,9.227-.2,13.847l-3.052,5.6c-12.8,4.536-18.93.42-19.266-13.4-.434-18.2-3.066-35.9-12.6-51.959a85.576,85.576,0,0,0-14.925-18.118c-1.582-1.512-3.444-3.682-5.979-2.38a5.965,5.965,0,0,0-2.926,6.581c1.05,7.351.924,14.743,1.2,22.136s-2.352,14.715-.672,22.136v4.494a397.108,397.108,0,0,0,0,40.212c-.392,2.45-1.2,4.942.77,7.127q0,39.106-.1,78.226c-2.646,4.438-.8,9.451-1.89,14.183-4.2,17.768-17.642,25.034-33.015,30.215a96.162,96.162,0,0,1-25.062,4.551,87.887,87.887,0,0,1-45.854-11.607c-14.7-8.177-21.884-20.148-18.524-37.328a47.7,47.7,0,0,1,14.1-18.2l19.5-8.541a105.7,105.7,0,0,1,47.479-2.45l18.2,5.307,1.218-1.288V283.139l-.07-5.769.084-20.792q0-8.4-.112-16.928v-8.2c0-3.78,0-7.575-.1-11.355,0-2.268.07-4.536.112-6.8v-4.354c.112-20.484.63-40.968.07-61.424-.168-6.4-1.106-12.881-1.134-19.35,0-8.709,3.108-13.273,10.7-15.934s11.551,2.618,14.827,7.5C322.332,133.828,335.34,144.4,347.409,155.922Z" transform="translate(74.906 44.639)" fill="#f9c661"/><path d="M270.529,417.419a124.615,124.615,0,0,1-30.369,5.195c-56.187,3.612-102.84-16.592-140.266-58.05A153.819,153.819,0,0,1,61.013,281.83c-8.3-59.016,7.743-110.611,50.979-152.307,26.7-25.777,59.128-40.3,96.091-44.8a168.688,168.688,0,0,1,96.735,16.242c11.8,5.769,20.008,14.365,18.524,28.969-.8,8.023-1.708,8.555-8.261,4.424-20.2-12.727-41.318-23.382-65.386-26.309-40.184-4.886-77.26,3.164-109.757,28.171-27.877,21.436-46.2,49.327-54.507,83.574a140.98,140.98,0,0,0,7,88.7c16.2,39.316,44.2,67.011,84.218,82.188,13.343,5.04,27.359,6.819,41.43,8.485a142.73,142.73,0,0,1,50.181,15.85C269.059,415.389,269.465,416.243,270.529,417.419Z" transform="translate(23.574 33.361)" fill="#f9c661"/><path d="M146.141,248.287l-4.2-9.9c-.616-3.248-1.218-6.483-1.834-9.717,0-2.394.756-4.872-.91-7l-.126-4.018,1.008-4.2.084-2.94c.616-2.8,1.218-5.6,1.834-8.317l8.4-16.62,1.4-1.4,8.219-8.541,4.2-2.716,6.861-4.312c15.093-6.133,30.327-7.393,45.826-1.4,15.093,5.825,25.132,16.662,31.391,31.321.728,1.708,1.582,3.346,2.38,5.012-.252,2.968.784,5.685,1.652,8.4l.056,2.744c.21,10.487-.882,20.778-4.83,30.621a5.769,5.769,0,0,0-2.66,4.382l-5.363,7c-18.594,22.4-54.7,29.207-82.216,5.391Zm13.707-1.316c3.962,4.942,7.855,9.983,13.875,12.6,4.886,4.116,10.7,5.461,16.914,5.517,11.663.756,23.032.336,32.2-8.4,8.485-6.5,14.407-14.659,16.55-25.3l1.3-4.088v-2.9l.07-2.8a31,31,0,0,0-5.6-21,4.789,4.789,0,0,0-2.38-4.116,5.432,5.432,0,0,0-2.968-4.13c-1.946-2.366-3.6-5.11-7-5.825l-1.19-1.148c-19.182-16.242-51.805-9.115-64.574,14-1.54.98-1.4,2.59-1.568,4.1-5.475,10.529-5.237,21.3-1.246,32.2a28.646,28.646,0,0,0,5.615,11.327Z" transform="translate(55.652 65.364)" fill="#f9c661"/><path d="M175.645,180.346l-6.861,4.312c-4.032-3-7.981.2-11.845.546s-7.351.644-11.047.686c-1.484,0-3.78.812-4.2-1.19-.63-2.618,1.876-2.576,3.6-3.052a20.807,20.807,0,0,0,3.136-1.708c-7.841-1.876-14,1.75-20.372,1.05,5.6-3.668,12.335-3.01,18.412-4.746,10.305-2.954,21.1-2.184,31.559-4.018,1.218-.21,3.906.7,3.444-2.058-.378-2.31-2.38-2.52-4.41-2.142-13.4,2.45-26.813,4.788-40.17,7.407a21,21,0,0,1-8.989.294c.658-3.388,3.164-3.444,5.783-3.808,6.175-.854,12.335-1.82,18.44-3.066a13.2,13.2,0,0,0,10.249-7.8c-7,.42-13.413,3.178-20.414,2.38,4.2-7,11.439-6.749,17.712-7.981,14-2.8,28.619-3.5,42.186-7.645,13.035-3.976,25.945-7.883,39.4-10.039,6.371-1.022,12.7-2.324,19.084-3.388,2.338-.392,4.634-.1,7.225,2.8l-49.187,8.765c5.461,3,10.585,2.688,15.808,1.652,5.6-1.12,11.327-2.17,16.984-3.332,4.2-.854,6.427,3.206,11.5,3.612-6.749,5.083-14.491,2.576-21.814,7.477,21.814-1.162,40.982-7.953,61.032-7.729-7.9,4.774-17.152,4.2-25.566,6.763,4.354.756,3.01,9.479,9.9,7.925-8.037,1.4-16.046,3.654-24.11,3.822-7.561.154-15.976,4.032-22.836-3.29-1.806-1.918-4.97.322-7.281.9-12.867,3.262-26.295,1.792-39.2,5.026-3,.756-5.419,1.148-7.253,4.2a7.3,7.3,0,0,1-6.595,3.29C175.925,176.02,175.5,178.036,175.645,180.346Z" transform="translate(51.183 53.735)" fill="#f9dfa7"/><path d="M44.148,322.689v-1.4c4.774-.784,9.6-1.4,14.309-2.506,1.4-.322,4.466.9,4.046-2.254-.378-2.926-3.08-2.534-5.04-2.24-6.637.966-13.2,2.31-19.84,3.248-3.682.518-10.7,2.2-10.543,1.106.77-5.363,6.567-3.29,10.137-4.2,8.695-2.142,17.67-3.164,26.6-5.152-5.461,1.246-6.833-7.631-12.769-4.859,7.617-3.416,16.1-2.926,23.984-5.237,2.926-.868,4.48,2.03,5.951,3.99,9.885,13.147,21.814,24.278,34.4,34.737-12.265,4.2-25.034,5.531-37.8,7,3.024-2.6,7.491-1.4,10.613-3.836-.784-2.982-3.724-.9-5.1-2.478l2.94-1.4c-.126-.28-.21-.574-.28-.574-7.547.476-13.189-8.079-21.842-4a31.111,31.111,0,0,1-15.612,2.38,11.468,11.468,0,0,1,0-1.19c.924,0,2.128.238,2.8-.224,10.641-8.261,23.984-6.385,35.928-9.731.812-.224,1.6-.518,3.066-.994-2.8-2.8-5.6-1.89-8.037-1.512a157.041,157.041,0,0,0-20.33,3.934C55.209,327.282,49.721,325.462,44.148,322.689Z" transform="translate(10.84 119.676)" fill="#fffffe"/><path d="M222.435,267.8a47.7,47.7,0,0,0-14.1,18.2c-4.34.6-8.9.532-12.979,1.9-9.717,3.29-18.5-.644-29.753-2.366,8.247-3.976,15.7-2.632,22.766-5.881-6.259-2.8-11.859-6.175-17.488-8.177-4.774-1.708-11.2,1.162-16.8,1.932-4.718.63-14.869-4.3-17.054-8.093-1.4-2.282-.084-2.674,1.834-3.108,5.139-1.162,10.571-1.008,15.5-3.22a5.713,5.713,0,0,0-.322-1.4c-1.218-2.366-5.419-3.4-4.312-6.427.994-2.8,4.606-1.106,7-1.694,6.847-1.68,13.9-4.97,19.8,2.212.812.994,2.8,1.4,1.792,3.15a4.578,4.578,0,0,1-2.8,1.68c-4.032.812-8.093,1.4-13.931,2.394,8.625,5.867,15.92,10.753,25.524,8.331A70.273,70.273,0,0,1,222.435,267.8Z" transform="translate(54.601 98.953)" fill="#f9dfa7"/><path d="M259.271,263.714a105.7,105.7,0,0,0-47.479,2.45,5.055,5.055,0,0,1,1.82-4.2,105.264,105.264,0,0,0,12.069-11.2c4.7-5.251,12.027-3.766,18.2-5.181,2.8-.63,6.021-.518,7.141-3.36,4.634-11.733,15.289-10.627,24.782-12.111a22.833,22.833,0,0,1,2.8-.1c0,1.918,0,3.85.07,5.769a14.757,14.757,0,0,1-12.993,6.623c-10.669,0-16.956,4.746-18.958,15.822l16.088-2.8C263.332,259.317,258.823,260.409,259.271,263.714Z" transform="translate(84.747 92.053)" fill="#f9dfa7"/><path d="M87.82,98.774l-40.73,7c5.349-8.695,9.395-17.5,21.394-18.678,13.483-1.246,26.841-4.424,40.24-6.777,2.688.406,1.5,1.008.294,2.212-5.054,5.054-11.551,8.541-15.766,14.519Z" transform="translate(18.847 32.159)" fill="#fffffe"/><path d="M210.86,235.508l5.363-7c8.121-.252,17.278-.448,23.368-4.746a39.96,39.96,0,0,1,18.1-6.931c1.764-.28,3.752-1.666,4.55,1.106s-1.582,3.22-3.472,4.2c-3.3,1.638-7.687-.49-10.375,3.094-.8,1.064-2.394,1.834-1.918,3.416s2.282,1.12,3.57,1.3c2.114.28,5.363-.868,5.223,2.8-.1,2.8-.28,6.3-4.088,7.211-3.122.742-6.329,1.19-9.479,1.876-9.395,2.03-9.955,1.4-7.575-8.513C226.262,234.6,218.631,236.18,210.86,235.508Z" transform="translate(84.378 86.544)" fill="#f9dfa7"/><path d="M150.519,205.869l.126,4.018c-9.927,2.492-20.218-2.324-30.075,1.5-6.133,2.366-7-4.1-9.521-6.623-2.31-2.254,2.8-2.366,3.836-4.2,5.279-9.6,14.491-4.984,22.99-7.813-2.226,5.223-5.713,4.2-8.919,5.167,3.276,1.12,3.29,5.909,7.5,5.083h0c-.868,3.01-.35,4.76,3.388,4.2S146.823,205.2,150.519,205.869Z" transform="translate(44.203 77.147)" fill="#f9dfa7"/><path d="M216.59,230.691c3.948-9.8,5.04-20.134,4.83-30.621,6.637-.952,13.175,3.36,19.91.294a2.17,2.17,0,0,1,3.192,1.708c.224,2.8-2.8,1.694-4.046,2.954,1.638,1.4,5.4.252,5.138,3.584s-3.3,2.8-5.531,2.7c-7.981-.336-10.991,8.3-17.936,9.8-.224,0-.462,1.3-.28,1.848C223.913,229.165,223.927,229.151,216.59,230.691Z" transform="translate(86.671 80.019)" fill="#f9dfa7"/><path d="M295.62,89.777c5.32,2.968,10.235-.238,15.261-1.106,7.6-1.3,10.109,0,10.865,6.077.224,1.736.294,3.654-1.5,4.2-5.362,1.4-2.044,5.167-2.142,7.827-.126,3.29,2.212,4.2,5.152,4.046,1.4,0,3,.294,2.8,2.156-.308,3.22-4.27,1.106-5.321,3.416-3.052.14-4.578-2.17-5.965-4.2-4.27-6.147-10.109-10.781-15.065-16.242C298.07,94.062,295.606,92.746,295.62,89.777Z" transform="translate(118.294 35.317)" fill="#fffffe"/><path d="M237.417,175.241c-.336-3.01,5.391-.728,3.752-4.326-1.064-2.31-3.542-1.988-5.6-1.176-3.584,1.4-4.648-1.848-8.709-3.5,9.633-2.156,17.25-4.354,25.384-4.1,5.068.154,7.855,4.55,12.349,5.965,2.044.63,2.8,5.6-1.722,6.651C254.471,176.8,245.986,179.189,237.417,175.241Zm16.424-8.093-1.05-.1c.168.14.322.364.49.378s.378-.182.56-.28Z" transform="translate(90.78 64.889)" fill="#f9dfa7"/><path d="M253.632,182.567c.672,2,2.926,4.508-.98,5.433-4.69,1.12-9.465,1.834-14.225,2.618-.854.14-2.17.1-2.618-.42-5.349-6.3-12.475-7.239-20.218-6.847,9.577-3.066,17.768-10,28.409-9.129,2.142.182,5.8-1.652,3.416,3.976-2.03,4.8,3.192,4.1,6.217,4.382Z" transform="translate(86.271 69.674)" fill="#f9dfa7"/><path d="M149.674,224.154l11.2,13.805c-4.1.266-8.331-.21-12.251,1.5-6.315,2.8-11.2-1.736-16.564-3.318-1.722-.518-2.674-2.8-.784-3.738C137.283,229.4,141.105,221.494,149.674,224.154Z" transform="translate(52.118 89.497)" fill="#f9dfa7"/><path d="M154.342,179.266l-8.4,16.62c-5.825.448-12.069,4.088-16.8-2.254a24.755,24.755,0,0,0,4.9-1.82c1.9-1.2,4.41-2.926.1-4.382a2.66,2.66,0,0,1-2.156-3c.126-1.68,1.19-2.31,2.8-2.478C141.279,181.268,147.608,178.817,154.342,179.266Z" transform="translate(51.679 71.729)" fill="#f9dfa7"/><path d="M220.483,202.8c-.868-2.8-1.9-5.475-1.652-8.4,4.466-.994,9.381.56,12.909-4.886,1.4-2.2,7.435-1.078,11.1-2.268,4.424-1.4,7.421-1.106,9.227,3.7.448,1.176,3.108.308,3.892,2.128C244.677,199.178,230.116,192.052,220.483,202.8Z" transform="translate(87.552 74.653)" fill="#f9dfa7"/><path d="M130.561,256.443c-3.5.518-5.769-1.526-7.407-4.088-1.806-2.8-1.792-5.208,2.534-5.7a123.774,123.774,0,0,0,12.839-2.058,3.962,3.962,0,0,1,4.3,1.232c1.792,2.044,5.447,3.626,4.943,6.2-.546,2.8-4.578,2.114-7,2.8A73.674,73.674,0,0,1,130.561,256.443Z" transform="translate(48.83 97.812)" fill="#f9dfa7"/><path d="M264.08,203.022q0,8.4.112,16.928c-5.195-.42-10.893,1.4-14.8-4.2-1.064-1.54-2.184-3.332-.8-3.864C254.237,209.687,256.757,202.1,264.08,203.022Z" transform="translate(99.219 81.226)" fill="#f9dfa7"/><path d="M104.876,230.665c2.338-2.9-5.068-4.956.112-6.525s10.837-1.89,16.284-2.8c-2.8,4.41,3.36,5.727,3.08,9.087-.112,1.5-2.044,1.512-3.444,1.722-3.878.56-7.785,1.008-11.593,1.876C105.24,234.935,104.26,233.465,104.876,230.665Z" transform="translate(41.261 88.586)" fill="#f9dfa7"/><path d="M144.846,210c.616,3.234,1.218,6.469,1.834,9.717-5.839,3.4-11.719.84-17.5-.1-2.548-.42-2.45-1.946-.588-3.808C133.141,211.316,138.923,210.574,144.846,210Z" transform="translate(50.912 84.049)" fill="#f9dfa7"/><path d="M226.727,165.7c-1.708-.112-4.1-.5-4.564-2.8-.574-2.912,2.114-2.282,3.808-2.6,6.8-1.26,13.6-2.548,20.4-3.794,1.862-.336,3.934-.756,4.438,1.862s-1.106,3.136-3.234,3.5C240.756,163.054,233.966,164.384,226.727,165.7Z" transform="translate(88.869 62.542)" fill="#f9dfa7"/><path d="M264.44,189.05c0,3.78.07,7.575.1,11.355-5.25,1.4-9.8-2.534-15.205-1.778-3.052.434-2.8-1.792-1.148-4.06C252.385,188.868,258.742,190.03,264.44,189.05Z" transform="translate(98.83 75.666)" fill="#f9dfa7"/><path d="M162.775,172.19l-8.219,8.541c-4.858-4.06-9.647.21-14.477.252-2.17,0-4.354,1.4-8.009.182C141.157,172.05,152.5,173.772,162.775,172.19Z" transform="translate(52.851 68.92)" fill="#f9dfa7"/><path d="M115.434,181.69c-1.974-.56-4.62.826-4.8-1.932-.126-1.834,1.946-2.114,3.612-2.394,7.2-1.218,14.379-2.562,21.576-3.808,1.4-.252,3.57-1.19,3.99,1.106.378,2.03-1.666,2.478-3.22,2.8C129.435,178.932,122.253,180.332,115.434,181.69Z" transform="translate(44.271 69.305)" fill="#f9dfa7"/><path d="M157.06,148.452c10.893-7.225,23.074-7.687,35.563-6.511Z" transform="translate(62.851 56.618)" fill="#f9dfa7"/><path d="M125.15,244.372c-1.722,0-3.752.2-4-2.45-.182-2.03.98-2.8,2.8-3.08,4.27-.77,8.5-1.778,12.755-2.632a3.514,3.514,0,0,1,4.48,3.15c.476,2.618-1.792,2-3.22,2.3C133.8,242.482,129.56,243.392,125.15,244.372Z" transform="translate(48.472 94.481)" fill="#f9dfa7"/><path d="M119.647,183.877c-3.4,4.536-8.709,2.954-12.685,4.732a5.8,5.8,0,0,1-2.8.154c-3.248-.294-8.569,3.71-9.171.084-.826-4.9,5.769-3.164,8.695-3.71C108.684,184.213,113.836,181.777,119.647,183.877Z" transform="translate(37.986 73.264)" fill="#f9dfa7"/><path d="M265.716,181.08v4.354c-6.609-1.54-13.2,2.8-21.786,0C252.009,181.612,258.869,181.346,265.716,181.08Z" transform="translate(97.61 72.477)" fill="#f9dfa7"/><path d="M128.886,209.1a3.374,3.374,0,0,1-2.632,1.988L113.4,213.62c-1.162.224-2.352.322-2.94-1.008a1.68,1.68,0,0,1,.8-2.352c5.18-2.114,10.683-2.548,16.172-3.038C128.466,207.138,128.984,208.006,128.886,209.1Z" transform="translate(44.12 82.935)" fill="#f9dfa7"/><path d="M78.189,93.992l5.433-1.722c1.05,7.295-4.074,12.517-12.461,12.685C73.358,101.217,77.769,98.893,78.189,93.992Z" transform="translate(28.479 36.941)" fill="#f9dfa7"/><path d="M106,192.765c6.595-4.088,13.875-4.592,21-5.685L127.38,189Z" transform="translate(42.42 74.878)" fill="#f9dfa7"/><path d="M132.558,211.666a44.2,44.2,0,0,1-18.958,3.668,43.881,43.881,0,0,1,18.958-3.668Z" transform="translate(45.461 84.707)" fill="#f9dfa7"/><path d="M242.76,181.461c.406-3.472,3.136-2.562,5.279-2.8,4.48-.588,8.793-2.632,13.511-1.4a71.224,71.224,0,0,1-18.79,4.2Z" transform="translate(97.142 70.794)" fill="#f9dfa7"/><path d="M144.179,197.06,144.1,200c-5.139-.994-10,1.4-15.065,1.316h0C133.1,196.444,139,198,144.179,197.06Z" transform="translate(51.635 78.871)" fill="#f9dfa7"/><path d="M250.24,201.773c3.122-3.514,6.175-2.562,9.8-2.646C256.9,202.683,253.908,201.773,250.24,201.773Z" transform="translate(100.135 79.675)" fill="#f9dfa7"/><path d="M99.05,76.082l1.5-1.722Z" transform="translate(39.639 29.774)" fill="#fffffe"/><path d="M51.2,127.652l1.218-1.3Z" transform="translate(20.492 50.578)" fill="#fffffe"/><path d="M362.5,263.93v4.2c-5.349-.224-10.459,1.4-15.64,2.282-3.066.546-5.881.938-8.863-1.918Z" transform="translate(135.251 105.628)" fill="#f4efe6"/><path d="M337.688,258.86c1.582.854,4.508-1.484,4.872,2.576.238,2.8,3.192,1.4,4.971,1.736a29.866,29.866,0,0,1-13.931,2.8c.462-1.834.924-3.682,1.4-5.516Z" transform="translate(133.491 103.6)" fill="#fffffe"/><path d="M358.429,278.93c1.708,2.632,4.69.5,7.519,2.24L355.5,283.032C355.447,280.918,355.559,278.944,358.429,278.93Z" transform="translate(142.251 111.63)" fill="#f9dfa7"/><path d="M343.49,262.425c2.478-2.52,5.6-.98,8.4-1.4C349.469,263.434,346.332,261.991,343.49,262.425Z" transform="translate(137.448 104.431)" fill="#fffffe"/><path d="M338.109,272.99c-1.022,1.624-2.8,1.316-4.2,1.512a5.6,5.6,0,0,0-1.288,0c1.092-3.332,3.766-.77,5.6-1.484Z" transform="translate(133.099 109.155)" fill="#f4efe6"/><path d="M332.58,274.011a5.6,5.6,0,0,1,1.288,0C333.434,274.753,333,274.725,332.58,274.011Z" transform="translate(133.083 109.647)" fill="#f9dfa7"/><path d="M345.187,259.6l-2.716,1.6-23.214,3.738c-1.792.28-4.2,1.064-4.382-1.68-.21-2.254,2.072-1.89,3.626-2.17,8.835-1.61,17.53-4.2,26.6-4.074C345.173,257.879,345.173,258.733,345.187,259.6Z" transform="translate(125.992 102.858)" fill="#f9dfa7"/><path d="M277.024,221.435c-1.974-2.184-1.162-4.676-.77-7.127,2.506-.154,5.04-.154,7.519-.5,1.932-.266,4.48-1.932,5.082.98a5.321,5.321,0,0,1-2.982,5.713C282.988,221.925,279.978,221.239,277.024,221.435Z" transform="translate(110.343 85.285)" fill="#f9dfa7"/><path d="M276.13,186.895V182.4c3.276,1.946,8.583-4.536,9.689.994C286.393,186.153,279.434,185.354,276.13,186.895Z" transform="translate(110.495 72.487)" fill="#f9dfa7"/><path d="M67.179,331.816c-1.876,3.738,1.2,2.52,2.8,2.8a28.422,28.422,0,0,1-15.4,2.6l-1.288-2.38a21.548,21.548,0,0,1,13.889-3.024Z" transform="translate(21.328 132.728)" fill="#fffffe"/><path d="M66.053,326.434c-5.139,1.022-8.6,3-13.2,1.61C56.938,326.434,60.453,325.118,66.053,326.434Z" transform="translate(21.152 130.423)" fill="#f4efe6"/><path d="M36.24,338.543a23.144,23.144,0,0,1,13.147-2.674c-4.592,2.716-8.835,2.8-13.119,2.716Z" transform="translate(14.506 134.373)" fill="#f4efe6"/><path d="M55.321,333.92l1.288,2.38H48.46l-.21-.728Z" transform="translate(19.312 133.634)" fill="#f4efe6"/><path d="M45.091,323.92a11.47,11.47,0,0,0,0,1.19c-2.94,2.8-6.553.952-9.8,1.4C37.992,323.78,42.151,326.132,45.091,323.92Z" transform="translate(14.126 129.633)" fill="#f4efe6"/><path d="M38.661,337.8c-2.464,2.45-5.6.966-8.4,1.4h0C32.71,336.724,35.861,338.208,38.661,337.8Z" transform="translate(12.113 135.156)" fill="#f4efe6"/><path d="M52.335,328.628c-2.436.546-3.878,1.05-5.265-.238C48.638,327.549,50.108,327.577,52.335,328.628Z" transform="translate(18.839 131.184)" fill="#f4efe6"/><path d="M45.434,329.353c-1.54.8-2.968,1.33-4.284.084C42.648,328.261,44.118,329.073,45.434,329.353Z" transform="translate(16.471 131.593)" fill="#f4efe6"/><path d="M65.15,334.19c1.988-2.282,4.7-.98,7-1.4C70.26,335.142,67.516,333.77,65.15,334.19Z" transform="translate(26.074 133.182)" fill="#fffffe"/><path d="M313.454,163.758c-1.526-2.226-3.4-4.2-3.724-7.113,6.273-1.232,12.6-2.408,18.776-3.752.938-.2,1.708-2.044,2.8-.644s-.14,2.422-.952,3.584c-.952,1.4-8.079-.5-2.478,4.452a15.518,15.518,0,0,1-3.556,1.75C320.707,162.75,317.109,163.2,313.454,163.758Z" transform="translate(123.939 60.732)" fill="#fae6bc"/><path d="M20.75,311.674c1.652-.882,2.94-1.4,3.612.07C24.488,312.024,22.5,312.318,20.75,311.674Z" transform="translate(8.308 124.391)" fill="#fffffe"/><path d="M18.28,309.17A2.1,2.1,0,0,1,21,308.106c.168,0,.252.336.392.5l-3.08.6Z" transform="translate(7.32 123.24)" fill="#fffffe"/><path d="M317.888,196.871c-.084-3.766-.154-7.533-.238-11.3,10.291-2.408,20.862,2.156,31.167-1.26a4.2,4.2,0,0,1,5,1.26c-4.2.882-8.4,2.044-12.741,2.534-3.542.406-5.433,1.4-7.8,4.732C330,197.375,323.111,195.484,317.888,196.871Z" transform="translate(127.109 73.628)" fill="#f9dfa7"/><path d="M316.758,179.98l-.168-2.8c1.008.2,2.366.154,2.128,1.624C318.634,179.266,317.444,179.574,316.758,179.98Z" transform="translate(126.684 70.916)" fill="#f9dfa7"/><path d="M5.3,208.511c2.464-2.52,5.6-.938,8.4-1.4C11.279,209.575,8.128,208.077,5.3,208.511Z" transform="translate(2.126 82.864)" fill="#fffffe"/><path d="M11.28,207.514c2.478-2.534,5.6-.952,8.4-1.4C17.273,208.606,14.108,207.052,11.28,207.514Z" transform="translate(4.519 82.461)" fill="#fffffe"/><path d="M364.74,280.12c2.212-1.68,3.724-1.008,5.881-1.19C368.534,281.058,367.008,279.98,364.74,280.12Z" transform="translate(145.951 111.63)" fill="#f9dfa7"/><path d="M249.293,262.067c-.448-3.3,4.06-4.4,3.514-8.3l-16.088,2.8c2-11.075,8.289-15.794,18.958-15.822a14.757,14.757,0,0,0,12.993-6.623q0,16,0,32.021l-1.218,1.288Z" transform="translate(94.725 93.7)" fill="#fae6bc"/><path d="M258.71,258.238l1.218-1.288Z" transform="translate(103.524 102.835)" fill="#f9dfa7"/><path d="M230.576,192.921a31,31,0,0,1,5.6,21l-21.926,2.8c.294-8.317-2.17-15.64-8.695-21-9.8-7.995-24.194-8.4-35,8.3h-9.8c1.26-7.085-.126-8.219-9.8-8.4.154-1.512,0-3.122,1.568-4.1.434,3.178,2.3,2.226,4.536,2.058,12.209-.924,22.206-9.689,34.751-9.395,3.766.084,7.435-3.808,10.515,2.8,1.9,4.088,18.2,1.484,22.906-2.6a5.432,5.432,0,0,1,2.8,4.172,36.828,36.828,0,0,0-5.447.364c-1.694.378-4.2.77-3.892,3.024s2.408,1.834,4.368,1.4a50.824,50.824,0,0,1,7.519-.42Z" transform="translate(60.406 73.294)" fill="#f9dfa7"/><path d="M180.734,247.672c-6.217,0-12.027-1.4-16.914-5.517,5.293-4.48,12.293-2.8,18.2-5.111,1.176-.448,3.766.1,3.136-2.562a2.8,2.8,0,0,0-3.108-2.212c-8.037.336-6.5-2.912-2.674-7,3.416-.1,6.511,1.4,10.221.8,9.8-1.694,15.093-8.065,19.21-16.144,7.589.686,14.589-3.08,22.108-2.8v2.9c-7.309-.14-14.575-.126-19.938,6.5l18.552-2.562c-2.142,10.641-8.065,18.8-16.55,25.286a3.99,3.99,0,0,0-4.3-1.4c-8.751,1.4-17.488,2.8-26.2,4.312C178.731,242.828,180.874,245.684,180.734,247.672Z" transform="translate(65.555 82.892)" fill="#f9dfa7"/><path d="M224.689,188.551c-4.7,4.088-21,6.693-22.906,2.6-3.08-6.651-6.749-2.8-10.515-2.8-12.6-.294-22.542,8.471-34.751,9.395-2.24.168-4.1,1.12-4.536-2.058,12.713-23.186,45.392-30.313,64.574-14-3.934,2.548-9.227.35-13.623,4.2,5.6,0,10.473-.28,14.813-3.108C221.091,183.44,222.743,186.185,224.689,188.551Z" transform="translate(60.818 69.179)" fill="#fae6bc"/><path d="M152.049,192.06c9.731.238,11.117,1.4,9.8,8.4h9.8a3.038,3.038,0,0,1-1.274,2.8c-4.466-.6-8.625,1.218-12.923,1.82a5.265,5.265,0,0,0-4.83,5.839c.434,3.346,3.654,1.736,5.713,2.1,3.976.714,7.7-1.008,11.579-1.26l2.016,8.051c-6.679,3.22-14,3.276-21.142,4.4C146.812,213.356,146.644,202.589,152.049,192.06Z" transform="translate(59.181 76.87)" fill="#fae6bc"/><path d="M183.331,220.476c-3.822,4.2-5.363,7.393,2.674,7a2.8,2.8,0,0,1,3.108,2.212c.63,2.66-1.96,2.114-3.136,2.562-5.895,2.282-12.9.63-18.2,5.11-6.021-2.688-9.913-7.729-13.875-12.6,7.533-4.2,16.354-3.08,24.194-5.951C179.929,219.174,181.959,218.838,183.331,220.476Z" transform="translate(61.586 87.574)" fill="#fae6bc"/><path d="M179.681,221.6c-7.841,2.8-16.662,1.806-24.194,5.951a28.647,28.647,0,0,1-5.517-11.2c7.127-1.12,14.463-1.176,21.142-4.4Z" transform="translate(60.014 84.829)" fill="#f9dfa7"/><path d="M176.041,238.936c.112-1.988-2-4.844,1.75-5.517,8.709-1.54,17.446-2.94,26.2-4.312a3.99,3.99,0,0,1,4.3,1.4C199.073,239.272,187.7,239.692,176.041,238.936Z" transform="translate(70.248 91.629)" fill="#fce5b5"/><path d="M216.076,213.178l-18.636,2.408c5.363-6.623,12.6-6.637,19.938-6.5Z" transform="translate(79.008 83.671)" fill="#fae6bc"/><path d="M129.091,200.547c5.068,0,9.927-2.31,15.065-1.316l-1.008,4.2c-3.7-.672-7.127.854-10.669,1.4S128.265,203.557,129.091,200.547Z" transform="translate(51.532 79.64)" fill="#fae6bc"/><path d="M218.048,207.826c-7.519-.238-14.519,3.528-22.108,2.8l.252-2.716,21.926-2.8C218.09,206.006,218.076,206.916,218.048,207.826Z" transform="translate(78.408 82.092)" fill="#fae6bc"/><path d="M211.214,191.368a50.833,50.833,0,0,0-7.477.462c-1.96.406-4.032.966-4.368-1.4s2.2-2.646,3.892-3.024a36.82,36.82,0,0,1,5.4-.406A4.788,4.788,0,0,1,211.214,191.368Z" transform="translate(79.768 74.846)" fill="#fae6bc"/><path d="M203.233,180.212c-4.34,2.8-9.143,3.136-14.813,3.108,4.4-3.906,9.689-1.708,13.623-4.2Z" transform="translate(75.399 71.693)" fill="#f9dfa7"/><path d="M246.43,165.738c-.182.1-.378.294-.56.28s-.322-.238-.49-.378Z" transform="translate(98.191 66.299)" fill="#fae6bc"/><path d="M209.116,214.658l-.252,2.716c-4.116,8.079-9.423,14.449-19.21,16.144-3.71.644-6.8-.9-10.221-.8-1.4-1.694-3.4-1.4-5.223-1.68l-8.569-9.689c-.672-2.688-1.4-5.363-2-8.051.14-2.8.294-5.6.448-8.5a3.038,3.038,0,0,0,1.274-2.8c10.865-16.69,25.2-16.3,35-8.3C206.946,199.061,209.41,206.342,209.116,214.658Z" transform="translate(65.483 75.386)" fill="#f9c661"/><path d="M169.083,200.134c-.154,2.8-.308,5.671-.448,8.5-3.892.252-7.617,1.974-11.593,1.26-2.058-.364-5.279,1.246-5.713-2.1a5.264,5.264,0,0,1,4.83-5.839C160.4,201.394,164.561,199.532,169.083,200.134Z" transform="translate(60.544 80.054)" fill="#f9dfa7"/></g></g><g transform="translate(1867 769) rotate(180)"><circle cx="239" cy="239" r="239" transform="translate(1398 157)" fill="rgba(220,220,220,0.3)"/><circle cx="38" cy="38" r="38" transform="translate(615 110)" fill="rgba(220,220,220,0.3)"/><circle cx="229" cy="229" r="229" transform="translate(-147 641)" fill="rgba(220,220,220,0.3)"/><circle cx="183" cy="183" r="183" transform="translate(985 582)" fill="rgba(220,220,220,0.3)"/><circle cx="119" cy="119" r="119" transform="translate(1723 891)" fill="rgba(220,220,220,0.3)"/></g></g></svg>