<svg xmlns="http://www.w3.org/2000/svg" xmlns:xlink="http://www.w3.org/1999/xlink" width="345.938" height="103.5" viewBox="0 0 345.938 103.5">
  <defs>
    <clipPath id="clip-path">
      <path id="Path_3" data-name="Path 3" d="M63,157h55.656v85H63Zm0,0"/>
    </clipPath>
    <clipPath id="clip-path-2">
      <path id="Path_5" data-name="Path 5" d="M8.406,145.035H89v103.5H8.406Zm0,0"/>
    </clipPath>
  </defs>
  <g id="Group_21" data-name="Group 21" transform="translate(-413.906 -774.535)">
    <path id="Path_1" data-name="Path 1" d="M77,197.059c-.02.554-.066,1.109-.137,1.66s-.172,1.1-.3,1.64a16.3,16.3,0,0,1-.453,1.606c-.176.527-.379,1.043-.605,1.551s-.48,1-.754,1.488-.574.949-.895,1.4a16.013,16.013,0,0,1-1.027,1.313q-.545.633-1.148,1.207c-.4.383-.82.746-1.258,1.09a16.641,16.641,0,0,1-1.359.961c-.469.3-.949.574-1.445.828s-1,.476-1.516.679-1.043.379-1.578.532-1.074.273-1.621.375-1.094.168-1.648.214-1.105.063-1.66.055-1.109-.047-1.66-.109-1.1-.149-1.641-.266-1.078-.258-1.609-.426-1.047-.363-1.559-.582-1.008-.461-1.5-.726-.957-.559-1.418-.871-.9-.649-1.328-1-.832-.735-1.223-1.129-.758-.813-1.109-1.242a16.484,16.484,0,0,1-.984-1.344c-.3-.465-.59-.941-.848-1.434a16.671,16.671,0,0,1-.707-1.511,15.68,15.68,0,0,1-.559-1.571c-.16-.531-.3-1.07-.406-1.617s-.187-1.094-.242-1.648-.086-1.11-.086-1.664c0-.571.027-1.137.082-1.7a16.423,16.423,0,0,1,.25-1.688c.109-.559.25-1.109.414-1.656s.359-1.078.578-1.606.465-1.035.734-1.539a16.267,16.267,0,0,1,.883-1.457c.316-.472.656-.926,1.02-1.367a16.885,16.885,0,0,1,1.152-1.254c.4-.4.828-.777,1.27-1.137s.9-.691,1.375-1a16.942,16.942,0,0,1,1.469-.859c.5-.266,1.02-.5,1.547-.715s1.063-.394,1.609-.554,1.1-.289,1.656-.391,1.121-.18,1.688-.227a17.338,17.338,0,0,1,3.4.059,16.177,16.177,0,0,1,1.676.277c.555.125,1.1.274,1.645.45s1.07.378,1.59.6,1.027.484,1.523.762.973.582,1.438.91.914.676,1.344,1.047.84.765,1.23,1.179a16.878,16.878,0,0,1,1.109,1.293c.348.45.676.914.977,1.4s.582.98.836,1.488.48,1.031.68,1.563.379,1.074.527,1.625.266,1.105.359,1.668.156,1.125.2,1.691.047,1.137.027,1.707ZM59.758,183.3a13.307,13.307,0,0,0-2.672.234,13.392,13.392,0,0,0-4.937,2.047,13.274,13.274,0,0,0-3.73,3.828,13.463,13.463,0,0,0-1.215,2.4,13.321,13.321,0,0,0-.879,5.281,13.621,13.621,0,0,0,.3,2.609,13.783,13.783,0,0,0,2.055,4.817,13.623,13.623,0,0,0,1.676,2.023,13.383,13.383,0,0,0,2.031,1.664,13.722,13.722,0,0,0,2.309,1.242,13.431,13.431,0,0,0,2.508.782,13.648,13.648,0,0,0,2.606.281,13.87,13.87,0,0,0,2.66-.293,13.555,13.555,0,0,0,2.555-.8,13.881,13.881,0,0,0,2.359-1.269,14.125,14.125,0,0,0,2.07-1.7,13.715,13.715,0,0,0,1.707-2.066,14.127,14.127,0,0,0,1.289-2.352,14.042,14.042,0,0,0,1.125-5.218,13.638,13.638,0,0,0-.285-2.672,14,14,0,0,0-.8-2.559,13.852,13.852,0,0,0-1.289-2.351,13.6,13.6,0,0,0-8.769-5.707A13.162,13.162,0,0,0,59.758,183.3Zm0,0" transform="translate(405.5 629.5)" fill="#fcba0a"/>
    <g id="Group_1" data-name="Group 1" transform="translate(405.5 629.5)" clip-path="url(#clip-path)">
      <path id="Path_2" data-name="Path 2" d="M93.777,219.574c0-17.7-.1-35.062.082-52.433,0-3.246-2-7.778,2.215-9.477,4.512-1.832,5.215,3.578,7.711,5.637,1.793,1.48,3.258,3.359,5.012,4.847,8.305,6.9,9.637,16.383,9.816,26.286,0,2.242-1.07,4.023-3.547,3.961s-3.23-1.879-3.3-4.161c-.262-8.968-2.094-17.25-10.028-22.98-1.652,1.379-.871,3.156-.879,4.664-.062,16.727,0,33.453,0,50.18,0,7.129-2.437,10.949-9.027,13.371a26.666,26.666,0,0,1-21.426-.735c-4.008-1.879-7.246-4.714-7.367-9.316-.121-4.926,3.387-7.813,7.488-9.754,6.016-2.824,12.242-2.922,18.59-1.465C90.551,218.551,91.945,219.043,93.777,219.574Zm0,0" fill="#fcb804"/>
    </g>
    <g id="Group_2" data-name="Group 2" transform="translate(405.5 629.5)" clip-path="url(#clip-path-2)">
      <path id="Path_4" data-name="Path 4" d="M88.176,161.965c-6.4-4.3-13.035-7.77-20.785-9.117q-2.191-.369-4.406-.524t-4.437-.082a44.6,44.6,0,0,0-13.055,2.383q-2.1.72-4.121,1.648a43.915,43.915,0,0,0-3.937,2.047q-1.922,1.125-3.719,2.43a43.9,43.9,0,0,0-3.457,2.789q-1.658,1.482-3.164,3.117t-2.84,3.418q-1.336,1.782-2.488,3.684a43.787,43.787,0,0,0-2.109,3.914,44.428,44.428,0,0,0-1.715,4.1q-.756,2.093-1.3,4.254t-.871,4.364c-3.527,24.628,13.926,47.867,38.41,50.351a46.6,46.6,0,0,1,19.2,5.8c-16.715,4.019-31.664,1.137-45.031-9.047C7.4,221.5,2.27,192.2,16.215,169.523c13.637-22.175,42.32-30.457,65.875-19.4C87.422,152.625,90.039,155.684,88.176,161.965Zm0,0" fill="#fcba0a"/>
    </g>
    <path id="Path_6" data-name="Path 6" d="M66.727,196.6a6.627,6.627,0,0,1-.086,1.305,6.764,6.764,0,0,1-1.7,3.481,6.919,6.919,0,0,1-.977.871,6.626,6.626,0,0,1-1.121.664,6.694,6.694,0,0,1-1.23.437,6.573,6.573,0,0,1-1.293.188c-3.758.211-7.328-3.016-7.379-6.613a7.25,7.25,0,0,1,.152-1.364,6.914,6.914,0,0,1,.41-1.312,7.171,7.171,0,0,1,.652-1.207,7.318,7.318,0,0,1,.871-1.063,7.251,7.251,0,0,1,2.262-1.527,6.977,6.977,0,0,1,1.309-.41,6.641,6.641,0,0,1,1.363-.153,7.289,7.289,0,0,1,1.293.164,7.136,7.136,0,0,1,2.387,1.032,6.841,6.841,0,0,1,1.008.832,6.561,6.561,0,0,1,.84,1,7.1,7.1,0,0,1,.641,1.14,7.353,7.353,0,0,1,.418,1.239A6.955,6.955,0,0,1,66.727,196.6Zm0,0" transform="translate(405.5 629.5)" fill="#fcba0a"/>
    <g id="Group_5" data-name="Group 5" transform="translate(405.5 629.5)">
      <g id="Group_4" data-name="Group 4" transform="translate(110.495 238.785)">
        <g id="Group_3" data-name="Group 3">
          <path id="Path_7" data-name="Path 7" d="M24.828-19.859a6.362,6.362,0,0,0-1.937-4.687A6.362,6.362,0,0,0,18.2-26.484a6.387,6.387,0,0,0-4.687,1.938,6.378,6.378,0,0,0-1.922,4.688V-4.406a4.232,4.232,0,0,1-1.312,3.094A4.254,4.254,0,0,1,7.172,0,4.248,4.248,0,0,1,4.063-1.312a4.247,4.247,0,0,1-1.3-3.094V-19.859a15.265,15.265,0,0,1,1.578-6.906,5.185,5.185,0,0,1-1.562-1.75A4.923,4.923,0,0,1,2.2-30.891a4.764,4.764,0,0,1,1.453-3.516,4.789,4.789,0,0,1,3.516-1.453,4.629,4.629,0,0,1,2.375.625,5.415,5.415,0,0,1,1.766,1.578,17.494,17.494,0,0,1,3.3-1.2,14.2,14.2,0,0,1,3.594-.453,14.836,14.836,0,0,1,6.109,1.25,16.222,16.222,0,0,1,4.938,3.375,15.124,15.124,0,0,1,4.891-3.375,15.023,15.023,0,0,1,6.141-1.25,15.009,15.009,0,0,1,6,1.219A15.39,15.39,0,0,1,51.2-30.781a15.39,15.39,0,0,1,3.313,4.922,15.008,15.008,0,0,1,1.219,6V-4.406a4.232,4.232,0,0,1-1.312,3.094A4.254,4.254,0,0,1,51.313,0,4.248,4.248,0,0,1,48.2-1.312a4.247,4.247,0,0,1-1.3-3.094V-19.859a6.362,6.362,0,0,0-1.937-4.687,6.4,6.4,0,0,0-4.687-1.937,6.41,6.41,0,0,0-4.7,1.938,6.378,6.378,0,0,0-1.922,4.688V-4.406a4.232,4.232,0,0,1-1.312,3.094A4.232,4.232,0,0,1,29.25,0a4.248,4.248,0,0,1-3.109-1.312,4.232,4.232,0,0,1-1.312-3.094Zm0,0" fill="#737373"/>
        </g>
      </g>
    </g>
    <g id="Group_8" data-name="Group 8" transform="translate(405.5 629.5)">
      <g id="Group_7" data-name="Group 7" transform="translate(167.868 238.785)">
        <g id="Group_6" data-name="Group 6">
          <path id="Path_8" data-name="Path 8" d="M36.969-17.656a16.607,16.607,0,0,1-.625,4.594,20.629,20.629,0,0,1-1.719,4.172,4.552,4.552,0,0,1,2.094,1.75,4.849,4.849,0,0,1,.8,2.734A4.789,4.789,0,0,1,36.063-.891,4.8,4.8,0,0,1,32.547.547a4.887,4.887,0,0,1-2.719-.781A5.089,5.089,0,0,1,28-2.344,16.675,16.675,0,0,1,19.313,0a17.288,17.288,0,0,1-6.875-1.375,18.091,18.091,0,0,1-5.625-3.8A17.847,17.847,0,0,1,3.031-10.8a17.172,17.172,0,0,1-1.375-6.859V-30.891A4.254,4.254,0,0,1,2.969-34a4.232,4.232,0,0,1,3.094-1.312A4.254,4.254,0,0,1,9.172-34a4.254,4.254,0,0,1,1.313,3.109v13.234a8.57,8.57,0,0,0,.688,3.453,9.045,9.045,0,0,0,1.891,2.8,9.046,9.046,0,0,0,2.8,1.891,8.571,8.571,0,0,0,3.453.688,8.483,8.483,0,0,0,3.438-.687,8.867,8.867,0,0,0,2.8-1.891,9.024,9.024,0,0,0,1.906-2.8,8.637,8.637,0,0,0,.688-3.453V-30.891A4.254,4.254,0,0,1,29.453-34a4.232,4.232,0,0,1,3.094-1.312A4.254,4.254,0,0,1,35.656-34a4.254,4.254,0,0,1,1.313,3.109Zm0,0" fill="#737373"/>
        </g>
      </g>
    </g>
    <g id="Group_11" data-name="Group 11" transform="translate(405.5 629.5)">
      <g id="Group_10" data-name="Group 10" transform="translate(207.588 238.785)">
        <g id="Group_9" data-name="Group 9">
          <path id="Path_9" data-name="Path 9" d="M21.516-8.828a2.137,2.137,0,0,0,1.578-.609,2.161,2.161,0,0,0,.625-1.594,2.119,2.119,0,0,0-.625-1.578,2.119,2.119,0,0,0-1.578-.625H12.688a10.657,10.657,0,0,1-4.266-.859,11.468,11.468,0,0,1-3.531-2.391A11.023,11.023,0,0,1,2.516-20a10.692,10.692,0,0,1-.859-4.281,10.685,10.685,0,0,1,.859-4.266,11.11,11.11,0,0,1,2.375-3.516,11.2,11.2,0,0,1,3.531-2.391,10.726,10.726,0,0,1,4.266-.859h13.25A4.232,4.232,0,0,1,29.031-34a4.254,4.254,0,0,1,1.313,3.109A4.232,4.232,0,0,1,29.031-27.8a4.232,4.232,0,0,1-3.094,1.313H12.688a2.161,2.161,0,0,0-1.594.625,2.137,2.137,0,0,0-.609,1.578,2.18,2.18,0,0,0,.609,1.594,2.145,2.145,0,0,0,1.594.625h8.828A10.788,10.788,0,0,1,25.8-21.2a11.241,11.241,0,0,1,3.516,2.375,11.241,11.241,0,0,1,2.375,3.516,10.787,10.787,0,0,1,.859,4.281,10.726,10.726,0,0,1-.859,4.266,11.355,11.355,0,0,1-2.375,3.531A11.11,11.11,0,0,1,25.8-.859,10.72,10.72,0,0,1,21.516,0H6.063A4.232,4.232,0,0,1,2.969-1.312,4.232,4.232,0,0,1,1.656-4.406,4.254,4.254,0,0,1,2.969-7.516,4.232,4.232,0,0,1,6.063-8.828Zm0,0" fill="#737373"/>
        </g>
      </g>
    </g>
    <g id="Group_14" data-name="Group 14" transform="translate(405.5 629.5)">
      <g id="Group_13" data-name="Group 13" transform="translate(241.24 238.785)">
        <g id="Group_12" data-name="Group 12">
          <path id="Path_10" data-name="Path 10" d="M18.766,0a17.289,17.289,0,0,1-6.875-1.375,18.091,18.091,0,0,1-5.625-3.8A17.847,17.847,0,0,1,2.484-10.8a17.172,17.172,0,0,1-1.375-6.859,17.185,17.185,0,0,1,1.375-6.859,17.735,17.735,0,0,1,3.781-5.609,17.826,17.826,0,0,1,5.625-3.8,17.165,17.165,0,0,1,6.875-1.391,17.063,17.063,0,0,1,6.859,1.391,17.715,17.715,0,0,1,5.609,3.8,17.715,17.715,0,0,1,3.8,5.609,17.064,17.064,0,0,1,1.391,6.859,4.247,4.247,0,0,1-1.312,3.109A4.254,4.254,0,0,1,32-13.234H11.109a8.931,8.931,0,0,0,3.172,3.2,8.5,8.5,0,0,0,4.484,1.2h4.406a4.254,4.254,0,0,1,3.109,1.313,4.254,4.254,0,0,1,1.313,3.109,4.232,4.232,0,0,1-1.312,3.094A4.254,4.254,0,0,1,23.172,0Zm0-26.484a8.443,8.443,0,0,0-4.484,1.219,8.995,8.995,0,0,0-3.172,3.2H26.422a8.911,8.911,0,0,0-3.219-3.2A8.476,8.476,0,0,0,18.766-26.484Zm0,0" fill="#737373"/>
        </g>
      </g>
    </g>
    <g id="Group_17" data-name="Group 17" transform="translate(405.5 629.5)">
      <g id="Group_16" data-name="Group 16" transform="translate(278.753 238.785)">
        <g id="Group_15" data-name="Group 15">
          <path id="Path_11" data-name="Path 11" d="M18.766,0a17.289,17.289,0,0,1-6.875-1.375,18.091,18.091,0,0,1-5.625-3.8A17.847,17.847,0,0,1,2.484-10.8a17.172,17.172,0,0,1-1.375-6.859,17.185,17.185,0,0,1,1.375-6.859,17.735,17.735,0,0,1,3.781-5.609,17.826,17.826,0,0,1,5.625-3.8,17.165,17.165,0,0,1,6.875-1.391,17.063,17.063,0,0,1,6.859,1.391,17.715,17.715,0,0,1,5.609,3.8,17.715,17.715,0,0,1,3.8,5.609,17.064,17.064,0,0,1,1.391,6.859,4.247,4.247,0,0,1-1.312,3.109A4.254,4.254,0,0,1,32-13.234H11.109a8.931,8.931,0,0,0,3.172,3.2,8.5,8.5,0,0,0,4.484,1.2h4.406a4.254,4.254,0,0,1,3.109,1.313,4.254,4.254,0,0,1,1.313,3.109,4.232,4.232,0,0,1-1.312,3.094A4.254,4.254,0,0,1,23.172,0Zm0-26.484a8.443,8.443,0,0,0-4.484,1.219,8.995,8.995,0,0,0-3.172,3.2H26.422a8.911,8.911,0,0,0-3.219-3.2A8.476,8.476,0,0,0,18.766-26.484Zm0,0" fill="#737373"/>
        </g>
      </g>
    </g>
    <g id="Group_20" data-name="Group 20" transform="translate(405.5 629.5)">
      <g id="Group_19" data-name="Group 19" transform="translate(316.266 238.785)">
        <g id="Group_18" data-name="Group 18">
          <path id="Path_12" data-name="Path 12" d="M26.625-17.656,36.766-7.516a3.781,3.781,0,0,1,1,1.453,4.706,4.706,0,0,1,.313,1.656,4.232,4.232,0,0,1-1.312,3.094A4.254,4.254,0,0,1,33.656,0,4.591,4.591,0,0,1,32-.312a3.643,3.643,0,0,1-1.453-1L20.422-11.453,10.281-1.312a3.7,3.7,0,0,1-1.453,1A4.622,4.622,0,0,1,7.172,0,4.248,4.248,0,0,1,4.063-1.312a4.247,4.247,0,0,1-1.3-3.094V-44.141a4.222,4.222,0,0,1,1.3-3.094,4.248,4.248,0,0,1,3.109-1.312,4.254,4.254,0,0,1,3.109,1.313,4.207,4.207,0,0,1,1.313,3.094v29.109L30.547-34a4.247,4.247,0,0,1,3.109-1.312A4.254,4.254,0,0,1,36.766-34a4.254,4.254,0,0,1,1.313,3.109A4.232,4.232,0,0,1,36.766-27.8Zm0,0" fill="#737373"/>
        </g>
      </g>
    </g>
  </g>
</svg>
