<svg xmlns="http://www.w3.org/2000/svg" width="494.278" height="235.731" viewBox="0 0 494.278 235.731">
  <g id="Group_1" data-name="Group 1" transform="translate(-214 -389)">
    <g id="Layer_1" data-name="Layer 1" transform="translate(464.666 475.969) rotate(-2)">
      <path id="Path_5" data-name="Path 5" d="M216.786,83.549c1.834-.476,2.352-2.142,3.08-3.542,5.1-9.8,10.15-19.6,14.7-29.666.861-1.911,1.75-3.5,4-1.4-6.181,13.755-11.872,27.8-21.084,39.962-4.13.224-6.139-3.661-6.762-7.063a83.891,83.891,0,0,1-1.435-16.457V59.973c-3,4.494-5.5,8.162-7.917,11.9-2.513,3.892-6.258,6.545-9.527,9.674-5.817-.959-7.9-3.3-8.295-9.394-.1-1.491-.084-2.982-.119-4.473-.308-1,.609-2.338-.735-3.038-5.047,4.529-8.9,10.052-14.126,14.392-4.781,3.983-10.388,5.873-15.848,8.281-5.95-.3-8.883-2.884-9.891-8.694-1.54-1.4.364-3.171-.364-5.152-3.948,5.18-7.7,10-11.319,14.868-7.056,9.387-11.781,19.509-12.915,31.549-.959,10.185-3.5,20.3-9.555,28.966-3.612-.791-4.753-2.24-4.795-6.783-.084-7.595,2.506-14.56,5.467-21.385,1.659-3.829,3.178-7.749,5.495-11.242,4.2-6.3,3.815-13.727,4.9-20.755.917-5.831,1.47-11.718,2.149-17.577.119-1.008.364-2.1-.665-2.884.567-1.183,1.932-2.842.637-3.6-1.6-.931-1.911,1.484-2.87,2.338a3.444,3.444,0,0,0-.406.567c-5.922,7.7-11.424,15.757-19.2,21.84-1.12.875-3.045.9-3.269,2.8-4.5.2-5.992-3.248-7.756-6.37-.133-1.022,1.61-2.24.049-2.954-.987-.455-1.757.917-2.3,1.708a28.7,28.7,0,0,1-5.418,5.67c-1.344,1.141-3.5,1.239-4.123,3.3-4.956-1.155-5.355-1.827-5.6-9.366-.336-1.281.413-2.695-.7-4.452-4.4,6.251-7.854,12.894-13.3,18.018-3.255.357-3.815-2.359-4.991-4.375.112-1.12,1.4-2.17.2-3.5l-7.749,7.2a8.351,8.351,0,0,1-6.433-2.415c-.819-.742-1.463-1.757-2.73-1.848-.588-2.8-1.778-1.323-2.611-.266-2.646,3.318-5.173,6.727-7.749,10.1-2.373.126-3.584-1.288-4.249-3.311a23.576,23.576,0,0,1-1.4-8.806c-.231-.651-.518-1.281-.7-1.953s.063-1.484-.833-1.7c-1.092-.266-1.344.7-1.708,1.4-5.026,9.261-7.819,19.4-11.466,29.2-2.8.112-3.857-1.449-4.144-4.032-1.561-14.168,1.148-27.9,4.277-41.579.364-1.582.7-4.466,3.766-2.52-1.2,5.831-2.548,11.634-3.535,17.5A125.388,125.388,0,0,0,3.177,104.7c0,.742-.273,1.9.882,1.9.924,0,1.106-.987,1.2-1.848.126-1.113-.378-2.345.56-3.325,2.422-1.659,2.443-4.585,3.5-6.93,1.708-3.822,3.395-7.623,6.006-10.941,1.442-1.841,3.115-2.8,5.376-1.309q.91,4.529,1.82,9.051c.315,1.568.1,3.227.875,4.711.847,1.638,1.54,1.554,2.1-.168,2.156-1.169,3.073-3.395,4.445-5.222,3.6-4.781,7.539-4.9,10.822.049,1.617,2.436,2.989,2.856,5.18.784A65.96,65.96,0,0,0,56.481,78.628a24.557,24.557,0,0,1,3.633-5.061c1.806-1.659,3.878-2.716,6.3-1.862,2.8.98,4.3-.056,5.355-2.639.959-2.352,2.184-4.606,3.374-6.853.763-1.4,1.715-2.653,3.5-1.092a12.7,12.7,0,0,1-.868,4.753c-2.037,6.657-3.619,13.377-3.416,20.426.07,2.4.84,2.961,2.9,1.778,6-3.5,10-9.009,13.132-14.924,2.366-4.48,4.809-8.687,8.589-12.1,6.153-5.551,12.257-5.8,18.613-.42,1.281,1.078,1.778.483,2.471-.357.889-1.071,1.708-2.2,2.583-3.283,1.274-1.582,2.653-1.736,4.116-.245-.756,10.5-3.164,20.853-3.5,31.423-.049,1.5-1.792,3.57,0,4.319,1.575.651,1.624-2.464,3.227-3.017,5-7.553,10.612-14.658,16.3-21.7,2.457-3.038,3.731-6.671,5.859-9.849,3.43-5.117,6.265-6.23,11.7-4.424a13.631,13.631,0,0,1,.84,12.516c-3.255.7-2.688-1.281-2.212-3.171.637-2.5,1.456-5.047-2.1-6.076-1.554-1.771-2.464-.147-3.339.7-5.6,5.656-7.56,12.775-7.833,20.433-.077,2.226.833,4.375,3.724,4.515,3.71,2.149,7,.476,10.157-1.295a54.242,54.242,0,0,0,13.671-11.2c3.171-3.549,6.223-7.21,9.443-10.717,1.337-1.456,1.645-3.283,2.415-4.949.56-1.2.973-3.22,3.073-1.526.231,3.045-.833,5.936-1.064,8.932-.35,4.62-.833,9.254.308,13.832.364,1.456.917,2.8,2.8,1.512,2.576.217,4.053-1.575,5.439-3.227A96.893,96.893,0,0,0,208.9,52.994c2.3-4.851,2.03-10.395,3.038-15.6,2.044-10.591,4.3-21.1,8.9-30.947a38.493,38.493,0,0,1,2.527-4.557c1.218-1.82,2.716-2.583,4.683-1.05.259,2.345-.385,4.6-.7,6.888-1.134,8.68-4.095,16.8-7.434,24.815-2.394,5.761-5.32,11.368-6.517,17.556-1.617,8.4-.539,16.9-.6,25.368a26.672,26.672,0,0,0,1.568,7.42C214.882,84.557,215.078,84.494,216.786,83.549Zm-157.5,6.51c3.423-3.5,5.341-8.029,7.777-12.18,1.071-1.827,0-2.247-1.694-1.652-1.526-3-2.8-.357-3.5.448a26.089,26.089,0,0,0-5.544,11.8c-.189,1.085-.623,2.667.371,3.269,1.442.868,1.484-1.442,2.583-1.687Zm49.993-28.8c-1.9-2.583-3.794-.644-5.341.266-7.343,4.333-10.5,11.361-12.033,19.369-.357,1.876.3,3.682.742,5.467.329,1.337,1.008,2.254,2.338.7a2.2,2.2,0,0,0,2.555-.525,78.3,78.3,0,0,0,15.47-17.374C115.343,65.8,113.194,61.821,109.281,61.254Zm5.32,57.98c-4.354,5.026-8.085,18.788-6.356,23.541C109.736,134.739,112.844,127.165,114.6,119.234ZM216.849,30.8l1.043.252,6.79-22.526-1.022-.294C220.209,15.4,218.382,23.1,216.849,30.8Z" transform="translate(0 0)" fill="#f182b4"/>
      <path id="Path_6" data-name="Path 6" d="M155.22,180.322c6.09-8.694,8.6-18.781,9.555-28.966,1.134-12.04,5.859-22.162,12.915-31.549,3.654-4.9,7.371-9.688,11.319-14.868.7,1.981-1.176,3.731.364,5.152-1.365,0-1.967,1.1-2.66,2.016-2.156,2.877-4.2,5.824-6.454,8.638-7.889,9.926-11.9,21.259-13.363,33.81a66.149,66.149,0,0,1-6.734,22.932C159.2,179.335,158.209,181.736,155.22,180.322Z" transform="translate(-46.583 -31.478)" fill="#e962a4"/>
      <path id="Path_7" data-name="Path 7" d="M307.89,83.9c-1.708.945-1.911,1.008-2.408-.665-.7-2.422-1.589-4.949-1.568-7.42.063-8.463-1.015-16.975.6-25.368,1.2-6.188,4.123-11.795,6.517-17.556,3.339-8.022,6.3-16.1,7.434-24.815.3-2.289.945-4.543.7-6.888,2.919.189,2.457,2.261,2.191,4.095-1.274,9.023-4.06,17.64-7.168,26.159-1.435,3.927-3.024,7.8-4.641,11.655-3.423,8.141-4.081,16.688-3.5,25.319C306.385,73.6,305.769,78.931,307.89,83.9Z" transform="translate(-91.104 -0.352)" fill="#e962a4"/>
      <path id="Path_8" data-name="Path 8" d="M310.71,109.848c9.212-12.187,14.91-26.229,21.077-40.018,2.345.182,1.89,1.939,1.358,3.073-5.6,11.956-10.724,24.206-18.2,35.216A3.906,3.906,0,0,1,310.71,109.848Z" transform="translate(-93.231 -20.945)" fill="#e962a4"/>
      <path id="Path_9" data-name="Path 9" d="M179.043,113.745c-1.6.553-1.652,3.668-3.227,3.017-1.82-.749-.077-2.8,0-4.319.35-10.57,2.758-20.9,3.5-31.423,3.255.112,2.478,2.555,2.275,4.326-.875,7.455-1.967,14.889-2.842,22.344C178.5,109.706,177.685,111.806,179.043,113.745Z" transform="translate(-52.514 -24.302)" fill="#e962a4"/>
      <path id="Path_10" data-name="Path 10" d="M7.233,131.051c-.938.98-.434,2.212-.56,3.325-.091.861-.273,1.855-1.2,1.848-1.155,0-.9-1.155-.882-1.9A125.391,125.391,0,0,1,6.33,116.456c.987-5.866,2.338-11.669,3.535-17.5,2.891-.574,2.38,1.4,1.995,2.9A163.167,163.167,0,0,0,7.6,126.193C7.443,127.81,7.352,129.434,7.233,131.051Z" transform="translate(-1.382 -29.652)" fill="#e962a4"/>
      <path id="Path_11" data-name="Path 11" d="M137.31,119.785c.224-1.918,2.149-1.939,3.269-2.8,7.777-6.083,13.3-14.147,19.2-21.84a3.443,3.443,0,0,1,.406-.567c.959-.854,1.274-3.269,2.87-2.338,1.295.756-.07,2.415-.637,3.6-5.894,7.833-11.564,15.862-19.411,21.966C141.342,119.092,139.564,120.142,137.31,119.785Z" transform="translate(-41.209 -27.605)" fill="#e962a4"/>
      <path id="Path_12" data-name="Path 12" d="M6.57,154.617c3.647-9.8,6.44-19.943,11.466-29.2.364-.7.616-1.638,1.708-1.4.9.217.7,1.064.833,1.7a14.261,14.261,0,0,0,.7,1.953c-2.436-.539-2.632,1.6-3.15,2.926-2.6,6.713-4.977,13.517-7.567,20.237C9.86,152.622,9.671,155.233,6.57,154.617Z" transform="translate(-1.986 -37.189)" fill="#e962a4"/>
      <path id="Path_13" data-name="Path 13" d="M218.14,115c5.46-2.408,11.067-4.3,15.848-8.281,5.222-4.34,9.1-9.863,14.126-14.392,1.344.7.427,2.037.735,3.038-4.508,3.934-8.106,8.806-12.887,12.488-4.2,3.22-8.589,5.866-13.748,7.084C220.9,115.248,219.5,115.682,218.14,115Z" transform="translate(-65.459 -27.695)" fill="#e962a4"/>
      <path id="Path_14" data-name="Path 14" d="M109.178,114.215c-2.1,1.183-2.835.623-2.9-1.778-.2-7.049,1.4-13.769,3.416-20.426a12.7,12.7,0,0,0,.868-4.753c3.045-.273,2.877,1.624,2.31,3.584a131.251,131.251,0,0,0-3.451,14.427A25.9,25.9,0,0,0,109.178,114.215Z" transform="translate(-31.893 -26.166)" fill="#e962a4"/>
      <path id="Path_15" data-name="Path 15" d="M211.942,106.407c-2.891-.14-3.8-2.289-3.724-4.515.273-7.658,2.247-14.777,7.833-20.433.875-.882,1.785-2.506,3.339-.7a37.653,37.653,0,0,0-8.155,17.227,13.727,13.727,0,0,0,.707,8.421Z" transform="translate(-62.481 -23.979)" fill="#e962a4"/>
      <path id="Path_16" data-name="Path 16" d="M270.364,99.584c-1.911,1.309-2.464-.056-2.8-1.512-1.141-4.578-.658-9.212-.308-13.832.231-3,1.295-5.887,1.064-8.932,2.443-.231,2.989,1.043,2.716,3.206-.623,4.949-1.6,9.856-1.47,14.889a22.156,22.156,0,0,0,.8,6.181Z" transform="translate(-80.072 -22.58)" fill="#e962a4"/>
      <path id="Path_17" data-name="Path 17" d="M274,107.234c3.269-3.129,7-5.782,9.527-9.674,2.415-3.731,4.9-7.4,7.917-11.9v5.418c-2.9,2.73-4.34,6.573-7.091,9.415C281.441,103.524,279.089,107.472,274,107.234Z" transform="translate(-82.218 -25.694)" fill="#e962a4"/>
      <path id="Path_18" data-name="Path 18" d="M81.49,131.888c5.418-5.124,8.869-11.767,13.3-18.018,1.092,1.757.343,3.171.7,4.452-3.234,2.576-4.368,6.7-7.077,9.667-1.085,1.19-1.925,2.6-3.374,3.423C83.891,132.035,82.806,132.819,81.49,131.888Z" transform="translate(-24.463 -34.157)" fill="#e962a4"/>
      <path id="Path_19" data-name="Path 19" d="M34.425,131.044c-.567,1.722-1.26,1.806-2.1.168-.777-1.484-.56-3.143-.875-4.711q-.9-4.529-1.82-9.051c2.625.126,2.968,2.233,3.332,4.088C33.564,124.681,33.949,127.873,34.425,131.044Z" transform="translate(-8.904 -35.231)" fill="#e962a4"/>
      <path id="Path_20" data-name="Path 20" d="M35.6,141.7c2.576-3.374,5.1-6.783,7.749-10.1.833-1.057,2.023-2.513,2.611.266-1.827,2.548-3.556,5.18-5.53,7.609C39.261,140.906,38.092,142.894,35.6,141.7Z" transform="translate(-10.695 -39.074)" fill="#e962a4"/>
      <path id="Path_21" data-name="Path 21" d="M109.39,129c.588-2.058,2.8-2.156,4.123-3.3a28.7,28.7,0,0,0,5.418-5.67c.539-.791,1.309-2.163,2.3-1.708,1.561.7-.182,1.932-.049,2.954a29.227,29.227,0,0,1-8.106,7,4.956,4.956,0,0,1-3.682.721Z" transform="translate(-32.833 -35.466)" fill="#e962a4"/>
      <path id="Path_22" data-name="Path 22" d="M229.99,88.906a13.528,13.528,0,0,0-.84-12.516c4.683,2,6.1,9.268,2.464,12.691C231.082,89.585,230.445,89.886,229.99,88.906Z" transform="translate(-68.762 -22.913)" fill="#e962a4"/>
      <path id="Path_23" data-name="Path 23" d="M63.49,135.559l7.8-7.189c1.232,1.323-.084,2.373-.2,3.5C68.894,133.767,66.857,136.028,63.49,135.559Z" transform="translate(-19.063 -38.507)" fill="#e962a4"/>
      <path id="Path_24" data-name="Path 24" d="M269.294,64.66h-1.022c-2.1-.21-3.437-1.568-2.8-3.4.763-2.233,2.8-1.9,4.543-.826Q269.644,62.532,269.294,64.66Z" transform="translate(-79.611 -17.874)" fill="#f182b4"/>
      <path id="Path_25" data-name="Path 25" d="M271,65q.35-2.1.7-4.263c1.267.273,2.723.7,2.5,2.24S272.666,65.262,271,65Z" transform="translate(-81.318 -18.218)" fill="#e962a4"/>
      <path id="Path_27" data-name="Path 27" d="M148.65,86.947c-9.359,3.108-15.687,14.539-14.3,25.837-1.323,1.519-2,.6-2.331-.7-.441-1.785-1.1-3.591-.742-5.467,1.5-8.008,4.69-15.036,12.033-19.369C144.856,86.3,146.753,84.364,148.65,86.947Z" transform="translate(-39.368 -25.693)" fill="#e962a4"/>
      <path id="Path_28" data-name="Path 28" d="M160.831,170.33c-1.757,7.931-4.9,15.5-6.356,23.541C152.746,189.118,156.477,175.356,160.831,170.33Z" transform="translate(-46.229 -51.096)" fill="#e962a4"/>
      <path id="Path_29" data-name="Path 29" d="M83.342,122.122c-1.1.259-1.141,2.555-2.562,1.687-.994-.6-.56-2.184-.371-3.269a26.088,26.088,0,0,1,5.544-11.8c.644-.8,1.946-3.451,3.5-.448C86.051,112.309,83.328,116.613,83.342,122.122Z" transform="translate(-24.061 -32.064)" fill="#e962a4"/>
      <path id="Path_31" data-name="Path 31" d="M309.81,34.325c1.54-7.742,3.36-15.4,6.8-22.575l1.022.294-6.783,22.54Z" transform="translate(-92.961 -3.52)" fill="#e962a4"/>
    </g>
    <g id="Layer_1-2" data-name="Layer 1" transform="translate(213.999 389)">
      <path id="Path_200" data-name="Path 200" d="M79.26,167.42c-4.41-2.63-6.69-6.94-8.92-11.29A97.4,97.4,0,0,1,71,140.89c1.08-7.46,3.58-14.72,3.28-22.37h0l.92-1c-.12-2.47,1.3-5.36-1.92-7-5-2.21-7.1,1.14-9.07,4.74-2.65,2-3.22,5-3.71,7.86-2.2,12.8-4.1,25.65-6.26,38.45-1,6-1.76,12.25-7.85,15.78l-6.08,1c-1.66-1.05-3.72-1.49-5-3.16-1.85-3-2-5.94-1.32-9.45,2.66-14,4.91-28.18,7.31-42.29.7-2.45,1.7-5.13-1.3-6.98s-5.39-.31-7.65,1.58c-3,2.47-4.36,5.83-5,9.49-2,11.73-3.85,23.5-6,35.2-1.35,7.31-.78,15.47-8,20.53l-6.86,1.06C.19,181-.78,179.19.48,171.38c3.21-20,6.56-40,9.92-59.95A10.71,10.71,0,0,1,24,103.37a6.8,6.8,0,0,0,6.36-.73c6.33-3.71,13.1-4.65,19.86-1.09,2.35,1.24,3.71.67,5.66-.85,11-8.54,23.25-9.37,32.6-2.63,2.51,1.81,4,4.32,5.7,6.76,1.88,5.6.54,11.11-.42,16.64-1.54,8.94-3.1,17.88-4.54,26.83-.28,1.77-.36,3.89,1.74,4.75a4,4,0,0,0,5.29-1.4c2.82-.67,4.29-2.93,5.87-5,4.49-6,4.87-13.13,6-20.09q2.53-15.52,5.09-31c1.06-6.38,4.4-10.07,9.44-10.49,4.13-.34,8.15,2.75,9.71,7.47,0,2.06,0,4.11-.08,6.17q-2.46,15-4.93,29.92c-1,4.58-2.17,9.17-2.13,13.88,0,2.37,0,5.33,3.94,4.12,1.14,0,2.24,0,3-1.09,2.8-1.87,5.33-3.91,5.22-7.74,3.8-2.65,3.87-7,4.69-10.87,1.5-7,2.63-14.16,3.92-21.24,1-5.84,2.13-11.67,3.06-17.53.84-5.24,3.93-8.39,9-9.33,4.29-.81,7.82,2.12,10.16,7.7q-.07,3.06-.16,6.12c-3.85,14.22-5.3,28.88-7.86,43.34-.3,1.7-.54,3.69,1.6,4.8s3.8.24,5.35-1.19c4.93-2.2,7.77-6.17,7.8-11.4a28.2,28.2,0,0,1,4.12-14.42c6.9-4.75,8.64-12.36,11-19.66,1.94-6.12,3.83-12.26,6-18.29,2.08-5.79,6.87-8.65,12.59-8.83,5-.15,8.48,3.18,10.45,7.82v5.89c-4.85,8.76-4.79,9.17,2,16h0l1.05,1.2c1.65,2,2.57,4.58,5,5.89l3.07,5c1.1,2.88,2.05,5.82,3.36,8.6.76,1.61-.46,4.34,1.48,4.76s2.9-2.22,4.29-3.53c.12-.11.22-.24.33-.36,5.1-6.69,4.85-14.89,6.34-22.59,1.44-7.43,2.05-15,5.43-22,8.14-17,37.91-21.69,47.5-2.79a6.209,6.209,0,0,0,.94,1.12,33.142,33.142,0,0,0,.41,3.45,27.45,27.45,0,0,1-11.42,28.13c-6.51,4.55-13.7,4.31-21,4.28-3.64-2.14-5.06-1-4.92,3.09.14,4.22,1.78,7.25,5.93,8.64a7.66,7.66,0,0,0,5.07,1.11c2.37,2.21,4.89.32,7-.18,9.43-2.16,17.8-6.11,21.88-15.82h0c1.83-.75,2.11-2.29,2-4h0c1.29-.72.95-2,1-3.07.38-2.34.77-4.68,1.15-7a33.34,33.34,0,0,0,1.79-9.94c.73-3.55,1.31-7.14,2.19-10.66,4.61-18.36,25.35-27.74,41.62-18.9,4.1,2.23,6.72,5.81,9.15,9.6,5.65,21.93-9.26,39.36-31.06,36.29-1.54-.12-3.09-2.14-4.52-.53a5.63,5.63,0,0,0-.87,5.63c1,2.86,2.11,5.6,5.47,6.45a8.12,8.12,0,0,0,5,1.15c3,2.3,6.15.53,8.94-.2,8.55-2.24,16.33-5.87,20-14.83h0a10.46,10.46,0,0,0,4-9.06,9.83,9.83,0,0,0,1-4.94,26.742,26.742,0,0,0,1.87-10q4.56-28,9.13-56A32.5,32.5,0,0,1,382.82,6c1.68-3.69,4.55-6,8.44-6,4.94,0,7.56,3.47,9.21,7.76-.06,2-.11,4-.17,6C398.59,19,398,24.48,397.32,30c-.95,7.75-1.07,7.73,6.19,5.71l7.68.2c5.45,2.71,10.41,6,13.21,11.69,2.13,7.78,1.36,15-3.95,21.45-.76.91-2.17,1.58-1,3.29,3.45,5,3.38,10.44,2.11,16.16-.46,2.08-1.22,4.88,1,6.49s3.95-.6,5.82-1.44c2.51-1.24,3.46-3.77,4.88-5.91,2.14-3.74,4.14-7.52,4.17-12,1.59-1.69.5-4.18,1.79-6,1.8-5.27,6.12-5.32,10.53-5,4.2.31,5.22,3.38,5.63,6.88-1.68,2.46-1,5.48-1.9,8.12-.72,2.19-1.36,4.41-2.18,6.57-3.47,9.1-8.28,17.08-17.21,22.06-7.24,4-15,3.31-22.69,3.22h.06l-.85-.93c-5.16-2.89-6.83-8.21-9.09-13.11l-.12-4.84c1.23-2.74,1.25-5.54.66-8.83a20.07,20.07,0,0,1-9.68,1.9c-1.85-.72-4.16-2.83-4.71,1.16-1.09,7.83-2,15.69-3,23.54-1.15,5.15-4.87,8-9.26,10.14-2.86,2.18-5.15-.15-7.17-1.39a4.88,4.88,0,0,0-5.78-.12c-10.15,5.81-21.2,7.81-32.78,7.35l-13-4h0l-1-1.18c-1.14-1.32-2.21-2.57-4-.69-11.9,12.63-27,16.91-43.81,16.73l-14-5.06c-1.89-1.89-3.53-1.84-5.43.21a42.61,42.61,0,0,1-7,6.31c-11.9,8.18-25.42,10.75-39.46,11.62-3.08.53-5.89-1.19-8.92-1.08a12.12,12.12,0,0,0-7-2v.08l-1-1c-1-1-1.46.12-1.92.61-9.66,10.19-21,12.7-34,7.26-2.09-3.24-4-3.36-6.08.11a42.17,42.17,0,0,1-4,4.89L131,163.09c-5.34,1-10.6.11-15.86-.72h0l-1-.95c-2-2.19-3.24-.14-4.58.83a40.24,40.24,0,0,1-9.86,5.53c-6.51,2.38-13,1.6-19.51.59l.06.05Zm120.66-36.91c-1.52.27-3.27-.39-4.6,1.06.83,2.2,2.46,2.94,4.6,2.89,2.89,1.77,5.52,1,8-.85,4.23-1.39,6-4.61,5.88-8.75-.15-6.23-2.85-11.48-7.07-15.94-.87-.92-1.62-2.6-4.37-1.45,5,4.91,6.36,10.55,4.35,16.88-2.12,2.18-4.13,4.53-6.79,6.16Zm81.63-49c0-3.24-1.13-5.94-4.52-6.75-2.88-.68-5.67-.07-7.37,2.68a21.63,21.63,0,0,0-2.2,4.91c-2.53,8.4-2.34,8.61,6.25,8.21,4.86-1.09,7.78-3.83,7.84-9.07Zm125-21.77c1.82-1.84,1.91-3.89.28-5.76a5.43,5.43,0,0,0-6.26-1.77,13.26,13.26,0,0,0-8.65,8.94c-.62,1.89-1.27,4.26,0,5.71,1.09,1.19,3-.47,4.56-.76l2.93-.49c3.92-.17,6.67-1.61,7.16-5.89Zm-63,10.89c.34-3.46-1.17-5.86-4.47-6.79s-5.74,1-7.54,3.59a14.4,14.4,0,0,0-2.07,6c-.35,2.07-1.9,4.4,0,6.09,2,1.85,4.64,1.28,7,0,5.05-.76,7.3-3.84,7.08-8.91Z" fill="#f9dda1"/>
      <path id="Path_201" data-name="Path 201" d="M328.59,134.53c-2.7-1.47-4.39-.1-6.4,1.74C308.53,148.8,292.51,153,274.38,149.4a6.36,6.36,0,0,1-2.81-.92c-6.25-5.3-10.74-2-15.75,2.41-9.9,8.64-22.16,11.25-34.87,12.63a43,43,0,0,1-19.42-2c-1.41-.5-2.92-.77-3.64-2.31.12-2.07,1.77-1.64,3-1.85a84,84,0,0,0,24.15-2c12.31-2.81,23.6-7.63,31.67-18,2.17.37,3.37,2,4.41,3.65,1.2,2,2.68,2.19,4.5.92,7.26,2.91,14.72,3.08,22.28,1.58,12.05-2.4,22.95-6.91,30.67-17.11,3.58.15,4,5.41,8,4.93,1.07.21,2.29,0,3.05,1.09Z" fill="#fbcecb"/>
      <path id="Path_202" data-name="Path 202" d="M13.27,183.27c7.24-5.06,6.67-13.22,8-20.53,2.16-11.7,4-23.47,6-35.2.64-3.66,2-7,5-9.49,2.26-1.89,4.65-3.39,7.65-1.58s2,4.5,1.28,7.06c-4.66,1.91-6.86,6.08-7.68,10.39-2.7,14.27-5,28.62-7.12,43-1.44,10-3.61,12.76-13.15,14.54l-1-1Z" fill="#f69993"/>
      <path id="Path_203" data-name="Path 203" d="M328.59,134.53l1.05-2.15c12.14,2.28,24.08,1.4,35-4.29,4.64-2.4,8.39-3.42,12.82-.6,7.65.13,11.9-3.72,14.16-12.85,2.2-.47,2.58-2.51,3.2-4.11,2.23-5.73,4.1-11.57,3.64-17.87h2.89l.12,4.84c-2.56,4.77-2,10.18-3,15.27-.67,3.38-.62,6.89-1.19,10.3-1.54,9.35-8.82,13-17.8,9-2.33-1.06-3.71.43-5.41,1.32-12.61,6.57-25.68,9.1-39.58,4.56A14,14,0,0,1,328.59,134.53Z" fill="#fac9cb"/>
      <path id="Path_204" data-name="Path 204" d="M73.19,110.6c3.22,1.61,1.8,4.5,1.92,7-.3.33-.61.66-.92,1h0c-4.81,1.57-6.18,5.76-7,10-2.81,15.21-5.35,30.48-8,45.72-1.26,7.24-5.35,10.73-12.92,11.11a2.25,2.25,0,0,1-.23-.66c.06-2.41.13-4.81.2-7.22,6.09-3.53,6.83-9.78,7.85-15.78,2.16-12.8,4.06-25.65,6.26-38.45.49-2.86,1.06-5.91,3.71-7.86.67,1.1,1.6,1.29,2.39.32C68.34,113.41,71.08,112.43,73.19,110.6Z" fill="#f69993"/>
      <path id="Path_205" data-name="Path 205" d="M195.92,159.41c-9,11.58-23,14.6-35.1,7.42-2.22-1.32-3.41-1.33-5.22,1-7.95,10.32-21.48,12.52-30.54,5.31.34-.93.68-1.86,1-2.79l1.94-.17c8.82,1.11,16-2.15,21.29-8.95,2.12-2.72,3.21-2.44,5.81-.9,11.4,6.8,25.67,3.76,33.83-6.89h3l-.11.12C192,156.3,195,157.13,195.92,159.41Z" fill="#fbcecb"/>
      <path id="Path_206" data-name="Path 206" d="M461.42,78.54c3.15.41,6.08,1.16,5.83,5.25-.75,12.73-7.38,33.18-23.37,39.4-7.72,3-15.59,4.39-23.27-.53a4.21,4.21,0,0,1-2.28-4.06c13.4,2.27,24.39-1.92,32.67-12.64C457.21,97.93,459.67,88.34,461.42,78.54Z" fill="#fbcecb"/>
      <path id="Path_207" data-name="Path 207" d="M461.42,78.54c-1.75,9.8-4.21,19.39-10.42,27.42-8.28,10.72-19.27,14.91-32.67,12.64-2.42-2.25-5.92-3.45-6.94-7.08,7.72.09,15.45.81,22.69-3.22,8.93-5,13.74-13,17.21-22.06.82-2.16,1.46-4.38,2.17-6.57,2.61-.5,4.79-2.62,7.69-2Z" fill="#f69b95"/>
      <path id="Path_208" data-name="Path 208" d="M46.33,185.31c7.57-.38,11.66-3.87,12.92-11.11,2.67-15.24,5.21-30.51,8-45.72.78-4.2,2.15-8.39,7-10,.3,7.65-2.2,14.91-3.28,22.37a97.4,97.4,0,0,0-.61,15.24c-2.36,6.69-3,13.72-4.09,20.65-.94,5.84-2,11.51-8.24,14.19C52.37,193.37,48.3,191.4,46.33,185.31Z" fill="#fbcecb"/>
      <path id="Path_209" data-name="Path 209" d="M13.28,191.45c9.54-1.78,11.71-4.57,13.15-14.54,2.08-14.37,4.42-28.72,7.12-43,.82-4.31,3-8.48,7.68-10.39-2.4,14.11-4.65,28.24-7.31,42.29-.67,3.51-.53,6.49,1.32,9.45-3.5,2.9-2.15,7.18-2.84,10.79-1.39,7.27-5.75,11.47-12.62,11.31C15.82,197.27,13.65,195.4,13.28,191.45Z" fill="#fbcecb"/>
      <path id="Path_210" data-name="Path 210" d="M335.54,109.6a8.12,8.12,0,0,1-5-1.15c0-3.69,4.31-7.39,0-11.07-.08-.08,0-.32-.05-.48,21.8,3.07,36.71-14.36,31.06-36.29,3.62,2,5.06,5.72,7.17,8.91l.81,11.06a9.83,9.83,0,0,1-1,4.94c-1.84,2.8-3.79,5.54-4,9.06h0c-2.15-.11-3,1.78-4.35,2.88-5.52,4.45-11.8,7.85-18.87,6.83C336,103.51,334.9,105.06,335.54,109.6Z" fill="#f69993"/>
      <path id="Path_211" data-name="Path 211" d="M267.65,107.7c7.29,0,14.48.27,21-4.28a27.45,27.45,0,0,0,11.42-28.13,33.117,33.117,0,0,1-.41-3.45c3.08,1.73,4.62,4.71,6.22,7.65l.9,11c-.38,2.33-.77,4.67-1.15,7-1.09.78-1,1.93-1,3.07h0c-1.8.77-2.2,2.24-2,4h0c-.74.29-1.73.36-2.18.89-7.12,8.35-16.46,10.07-26.74,9.11a6.78,6.78,0,0,0-4-1,7.85,7.85,0,0,1-2.06-5.86Z" fill="#f69993"/>
      <path id="Path_212" data-name="Path 212" d="M167,139.53c-1.55,1.43-3.18,2.32-5.35,1.19s-1.9-3.1-1.6-4.8c2.56-14.46,4-29.12,7.87-43.34h6a4.889,4.889,0,0,1,.34.82c-.64,4.21-1.25,8.42-1.92,12.62Q169.68,122.8,167,139.53Z" fill="#f69993"/>
      <path id="Path_213" data-name="Path 213" d="M96.2,151.65a4,4,0,0,1-5.29,1.4c-2.1-.86-2-3-1.74-4.75,1.44-9,3-17.89,4.54-26.83,1-5.53,2.3-11,.42-16.64,3.26,1.76,4.66,5.15,6.89,7.81a67.62,67.62,0,0,1-1.37,18.15C98.12,137.66,97.32,144.69,96.2,151.65Z" fill="#f69993"/>
      <path id="Path_214" data-name="Path 214" d="M428.37,93.51c-1.87.84-3.66,3-5.82,1.44s-1.44-4.41-1-6.49c1.27-5.72,1.34-11.16-2.11-16.16-1.18-1.71.23-2.38,1-3.29,5.31-6.43,6.08-13.67,3.95-21.45,3.49,1.69,5,5.14,7,8.09.25,7.63.58,15.29-5.68,21.17a1.58,1.58,0,0,0-.17,2.53C429.1,83.53,428.41,88.59,428.37,93.51Z" fill="#f69993"/>
      <path id="Path_215" data-name="Path 215" d="M80.17,168.39c6.54,1,13,1.79,19.51-.59a40.24,40.24,0,0,0,9.86-5.53c1.34-1,2.61-3,4.58-.83l1,.95h0c-.34,2,2.1,3,1.92,4.93-1.06,2.2-3,3.37-5,4.62-8.07,5.17-16.71,5.5-25.7,3.24C84.66,172.6,81,171.83,80.17,168.39Z" fill="#f69b95"/>
      <path id="Path_216" data-name="Path 216" d="M167,139.53q2.67-16.73,5.32-33.47c.67-4.2,1.28-8.41,1.92-12.62,6.55,1.6,6.13,6.64,5.44,13.94a55,55,0,0,0-.76,6.33,28.2,28.2,0,0,0-4.12,14.42C174.77,133.36,171.93,137.33,167,139.53Z" fill="#fbcecb"/>
      <path id="Path_217" data-name="Path 217" d="M86.4,175.16c9,2.26,17.63,1.93,25.7-3.24,2-1.25,3.93-2.42,5-4.62,1.53-.34,2.74.41,4,1.14,0,2.2,2.21,3.05,3,4.76-8.64,11.06-28.11,13.24-36.49,4.06a10.48,10.48,0,0,1-1.21-2.1Z" fill="#fbcecb"/>
      <path id="Path_218" data-name="Path 218" d="M127.28,128.56q2.46-15,4.93-29.92l5.89-.08,1.21,1.86q-2.81,16.13-5.62,32.25C130.54,132.89,130.43,128.36,127.28,128.56Z" fill="#f69993"/>
      <path id="Path_219" data-name="Path 219" d="M133.69,132.67q2.82-16.12,5.62-32.25c4-.53,3.89,4.09,6.58,5.2-1.29,7.08-2.42,14.2-3.92,21.24-.82,3.88-.89,8.22-4.69,10.87a6.38,6.38,0,0,0-3.42-3.26Z" fill="#fbcecb"/>
      <path id="Path_220" data-name="Path 220" d="M96.2,151.65c1.12-7,1.92-14,3.45-20.86A67.62,67.62,0,0,0,101,112.64c4.31,2,5.23,6.1,6.06,10.19.26,1.26-.28,2.7,1,3.7-1.11,7-1.49,14.14-6,20.09C100.49,148.72,99,151,96.2,151.65Z" fill="#fbcecb"/>
      <path id="Path_221" data-name="Path 221" d="M428.37,93.51c0-4.92.73-10-2.82-14.16a1.58,1.58,0,0,1,.17-2.53c6.26-5.88,5.93-13.54,5.68-21.17,4,1.15,4.63,4.84,5.74,8,.69,2,.61,4.25,2.07,6-1.29,1.77-.2,4.26-1.79,6-2.39,2.27-3,5.71-5.38,8.06-1.54,1.5-.42,3,1.21,3.93C431.83,89.74,430.88,92.27,428.37,93.51Z" fill="#fbcecb"/>
      <path id="Path_222" data-name="Path 222" d="M403.51,35.67c-7.26,2-7.14,2-6.19-5.71.67-5.48,1.27-11,3-16.25l5.38-.1c.28.37.57.73.85,1.09C406.42,21.82,404.69,28.71,403.51,35.67Z" fill="#f69993"/>
      <path id="Path_223" data-name="Path 223" d="M403.51,35.67c1.18-7,2.91-13.85,3-21,5.54,2.85,7.22,6.6,5.62,13.93-.53,2.42-.6,4.83-.95,7.24Z" fill="#fbcecb"/>
      <path id="Path_224" data-name="Path 224" d="M226.91,103.65c-2.44-1.31-3.36-3.91-5-5.89l-1.05-1.2h0c-.37-2.2,1-3.71,2.15-5.27a13.59,13.59,0,0,0,2.78-8.69c7.45,3.22,6.94,10.79,3.34,15.87C228,100.11,226.49,101.42,226.91,103.65Z" fill="#fbcecb"/>
      <path id="Path_225" data-name="Path 225" d="M225.82,82.64A13.59,13.59,0,0,1,223,91.33c-1.15,1.56-2.52,3.07-2.15,5.27-6.76-6.79-6.82-7.2-2-16l5.1-.12Z" fill="#f69b95"/>
      <path id="Path_226" data-name="Path 226" d="M239.44,118.09c-.11.12-.21.25-.33.36-1.39,1.31-2.3,4-4.29,3.53s-.72-3.15-1.48-4.76c-1.31-2.78-2.26-5.72-3.36-8.6,3,.88,3.82,3.86,5.6,5.9C236.75,115.87,237.52,117.57,239.44,118.09Z" fill="#f69b95"/>
      <path id="Path_227" data-name="Path 227" d="M461.15,77.68c-2.9-.63-5.08,1.49-7.69,2,.93-2.64.23-5.66,1.91-8.12C459,72,461.28,73.69,461.15,77.68Z" fill="#f8b0aa"/>
      <path id="Path_228" data-name="Path 228" d="M13.27,183.27l-1,7.17c-3.84-.22-5.31-2.74-5.9-6.11Z" fill="#f8b0aa"/>
      <path id="Path_229" data-name="Path 229" d="M46.3,177.43c-.07,2.41-.14,4.81-.2,7.22-3.49-.63-5.65-2.52-5.88-6.22Z" fill="#f8b0aa"/>
      <path id="Path_230" data-name="Path 230" d="M138.1,98.56l-5.89.08c0-2.06,0-4.11.08-6.17C135.52,93.27,137.63,95.12,138.1,98.56Z" fill="#f8b0aa"/>
      <path id="Path_231" data-name="Path 231" d="M195.92,159.41c-.91-2.28-3.88-3.11-4.09-5.87l8,1.88a2,2,0,0,1,1,1.9c-1.25.21-2.9-.22-3,1.85C197.23,159.24,196.58,159.32,195.92,159.41Z" fill="#f69b95"/>
      <path id="Path_232" data-name="Path 232" d="M173.9,92.62h-6l.15-6.12A8,8,0,0,1,173.9,92.62Z" fill="#f8b0aa"/>
      <path id="Path_233" data-name="Path 233" d="M224,80.52l-5.1.12V74.75C221.14,76.22,223.35,77.69,224,80.52Z" fill="#f8b0aa"/>
      <path id="Path_234" data-name="Path 234" d="M369.5,80.58l-.81-11.06,2.68,1a26.74,26.74,0,0,1-1.87,10.06Z" fill="#fbcdc8"/>
      <path id="Path_235" data-name="Path 235" d="M306.77,90.51l-.9-11,2.69,1.08a33.34,33.34,0,0,1-1.79,9.92Z" fill="#fbcdc8"/>
      <path id="Path_237" data-name="Path 237" d="M124.08,173.2c-.82-1.71-3-2.56-3-4.76,1.79.35,3.61.61,5,1.93-.33.93-.67,1.86-1,2.79l-.49.06Z" fill="#f69b95"/>
      <path id="Path_240" data-name="Path 240" d="M410.6,110.64l.85.93Z" fill="#f69b95"/>
      <path id="Path_241" data-name="Path 241" d="M79.26,167.42l1,1Z" fill="#f69b95"/>
      <path id="Path_242" data-name="Path 242" d="M200.91,157.32a2,2,0,0,0-1-1.9c.69-1.66,1.37-3.33,2-5,14-.87,27.56-3.44,39.46-11.62a42.61,42.61,0,0,0,7-6.31c1.9-2.05,3.54-2.1,5.43-.21-.29,2.41,2.1,3.26,2.9,5-8.06,10.38-19.35,15.2-31.66,18a84,84,0,0,1-24.13,2.04Z" fill="#f69993"/>
      <path id="Path_243" data-name="Path 243" d="M318.58,126.36c-7.71,10.2-18.61,14.71-30.66,17.11-7.56,1.5-15,1.33-22.28-1.57l2.22-4.55c16.8.18,31.91-4.1,43.81-16.73,1.77-1.88,2.84-.63,4,.69.34.4.69.79,1,1.18h0C316.42,124.2,318,125.05,318.58,126.36Z" fill="#f69b95"/>
      <path id="Path_244" data-name="Path 244" d="M188.94,153.46c-8.16,10.65-22.43,13.69-33.83,6.89-2.6-1.54-3.69-1.82-5.81.9-5.3,6.8-12.47,10.06-21.29,9q1.52-3.56,3-7.12l7.95-3.78c5.88,3.42,7.23-2.33,10.1-5,13,5.44,24.3,2.93,34-7.26.46-.49.91-1.6,1.92-.61l1,1v-.08C185.64,150.06,189.19,150.83,188.94,153.46Z" fill="#f69b95"/>
      <path id="Path_245" data-name="Path 245" d="M377.5,127.49c-4.43-2.82-8.18-1.8-12.82.6-11,5.69-22.9,6.57-35,4.29-.76-1.09-2-.88-3.05-1.09,1-1.62,2.05-3.23,3.08-4.85,11.58.46,22.63-1.54,32.78-7.35a4.88,4.88,0,0,1,5.78.12c2,1.24,4.31,3.57,7.17,1.39C379.26,121.93,376.76,125.2,377.5,127.49Z" fill="#f69b95"/>
      <path id="Path_246" data-name="Path 246" d="M377.5,127.49c-.74-2.29,1.76-5.56-2.1-6.89,4.39-2.19,8.11-5,9.26-10.14,5-6.08,6.88-13.31,7.84-20.9a1.92,1.92,0,0,1,2,2.08c-.68,7.7-2.83,15.22-2.83,23C389.4,123.77,385.15,127.62,377.5,127.49Z" fill="#f58880"/>
      <path id="Path_247" data-name="Path 247" d="M336.4,79.56c-2.33,1.27-4.94,1.84-7,0-1.86-1.69-.31-4,0-6.09a14.4,14.4,0,0,1,2.07-6c1.8-2.57,4.14-4.55,7.54-3.59s4.81,3.33,4.47,6.79C338.56,71.51,336.56,74.8,336.4,79.56Z" fill="#f69b95"/>
      <path id="Path_248" data-name="Path 248" d="M399.47,65.59l-2.93.49c-1.56.29-3.47,2-4.56.76-1.31-1.45-.66-3.82,0-5.71a13.26,13.26,0,0,1,8.65-8.94A5.43,5.43,0,0,1,406.85,54c1.63,1.87,1.54,3.92-.28,5.75C402.86,60.06,400.86,62.46,399.47,65.59Z" fill="#f69993"/>
      <path id="Path_249" data-name="Path 249" d="M273.71,90.54c-8.59.4-8.78.19-6.25-8.21a21.63,21.63,0,0,1,2.2-4.91c1.7-2.75,4.49-3.36,7.37-2.68,3.39.81,4.49,3.51,4.52,6.75C276,81.92,274.39,85.84,273.71,90.54Z" fill="#f69b95"/>
      <path id="Path_250" data-name="Path 250" d="M273.73,114.54c10.28,1,19.62-.76,26.74-9.11.45-.53,1.44-.6,2.18-.89-4.08,9.71-12.45,13.66-21.88,15.82-2.15.5-4.67,2.39-7,.18Z" fill="#fbcdc8"/>
      <path id="Path_251" data-name="Path 251" d="M335.54,109.6c-.64-4.54.42-6.09,5.74-5.32,7.07,1,13.35-2.38,18.87-6.83,1.36-1.1,2.2-3,4.35-2.88-3.69,9-11.47,12.59-20,14.83C341.69,110.13,338.55,111.9,335.54,109.6Z" fill="#fbcdc8"/>
      <path id="Path_252" data-name="Path 252" d="M206.74,124.35c2-6.33.65-12-4.35-16.88,2.75-1.15,3.5.53,4.37,1.45,4.22,4.46,6.92,9.71,7.07,15.94.09,4.14-1.65,7.36-5.88,8.75C207.35,130.55,209.07,127.18,206.74,124.35Z" fill="#f69b95"/>
      <path id="Path_253" data-name="Path 253" d="M392.5,89.56c-1,7.59-2.88,14.82-7.84,20.9,1-7.85,1.91-15.71,3-23.54.55-4,2.86-1.88,4.71-1.16C392.41,87,392.45,88.29,392.5,89.56Z" fill="#f47e72"/>
      <path id="Path_254" data-name="Path 254" d="M133.69,132.67c.06.6.12,1.2.17,1.8l-.84,1c-3.54,2.9-2.28,7.51-3.93,11.08-4,1.21-3.93-1.75-3.94-4.12,0-4.71,1.08-9.3,2.13-13.88C130.43,128.36,130.54,132.89,133.69,132.67Z" fill="#f47e72"/>
      <path id="Path_255" data-name="Path 255" d="M131,163.09q-1.5,3.57-3,7.12l-1.94.16c-1.41-1.32-3.23-1.58-5-1.93-1.22-.73-2.43-1.48-4-1.14.18-2-2.26-2.9-1.92-4.93C120.43,163.2,125.69,164.06,131,163.09Z" fill="#f58880"/>
      <path id="Path_256" data-name="Path 256" d="M330.46,96.9a1.332,1.332,0,0,0,.05.48c4.34,3.68,0,7.38,0,11.07-3.36-.85-4.51-3.59-5.47-6.45a5.63,5.63,0,0,1,.87-5.63C327.37,94.76,328.92,96.78,330.46,96.9Z" fill="#f47e72"/>
      <path id="Path_257" data-name="Path 257" d="M392.5,89.56c-.05-1.27-.09-2.53-.13-3.8a20.07,20.07,0,0,0,9.68-1.9c.59,3.29.57,6.09-.66,8.83H398.5l-4-1a1.92,1.92,0,0,0-2-2.13Z" fill="#f69993"/>
      <path id="Path_258" data-name="Path 258" d="M206.74,124.35c2.33,2.83.61,6.2,1.21,9.26-2.51,1.85-5.14,2.62-8,.85v-4C202.58,128.88,204.59,126.53,206.74,124.35Z" fill="#f58880"/>
      <path id="Path_259" data-name="Path 259" d="M267.65,107.7a7.85,7.85,0,0,0,2.1,5.85c-1.21,1.8-1,3.87-1.09,5.88-4.15-1.39-5.79-4.42-5.93-8.64C262.59,106.74,264,105.56,267.65,107.7Z" fill="#f47e72"/>
      <path id="Path_260" data-name="Path 260" d="M267.86,137.35l-2.22,4.55c-1.82,1.26-3.3,1-4.5-.93-1-1.7-2.24-3.28-4.41-3.65-.81-1.77-3.2-2.62-2.91-5Z" fill="#f58880"/>
      <path id="Path_261" data-name="Path 261" d="M329.67,126.44c-1,1.62-2.06,3.23-3.08,4.85-4,.48-4.42-4.78-8-4.93-.61-1.31-2.17-2.16-1.9-3.9Z" fill="#f58880"/>
      <path id="Path_262" data-name="Path 262" d="M149.08,154.31c-2.87,2.67-4.22,8.42-10.1,5a43.118,43.118,0,0,0,4-4.89C145.09,151,147,151.07,149.08,154.31Z" fill="#f8b0aa"/>
      <path id="Path_263" data-name="Path 263" d="M201.92,150.43c-.68,1.66-1.36,3.33-2,5l-8-1.88.11-.12a6.57,6.57,0,0,1,1.06-4.07C196,149.24,198.84,151,201.92,150.43Z" fill="#f58880"/>
      <path id="Path_264" data-name="Path 264" d="M273.71,90.54c.68-4.7,2.24-8.62,7.84-9.05C281.49,86.73,278.57,89.47,273.71,90.54Z" fill="#fbcdc8"/>
      <path id="Path_265" data-name="Path 265" d="M336.4,79.56c.16-4.76,2.16-8,7.15-9C343.77,75.68,341.52,78.76,336.4,79.56Z" fill="#fbcdc8"/>
      <path id="Path_266" data-name="Path 266" d="M133,135.48l.84-1a6.38,6.38,0,0,1,3.42,3.26c.11,3.83-2.42,5.87-5.22,7.74Z" fill="#f8b0aa"/>
      <path id="Path_267" data-name="Path 267" d="M268.66,119.43c.11-2-.12-4.08,1.09-5.88a6.78,6.78,0,0,1,4,1v6a7.66,7.66,0,0,1-5.09-1.12Z" fill="#f8b0aa"/>
      <path id="Path_268" data-name="Path 268" d="M73.19,110.6c-2.11,1.83-4.85,2.81-6.68,5.06-.79,1-1.72.78-2.39-.32C66.09,111.74,68.19,108.39,73.19,110.6Z" fill="#f8b0aa"/>
      <path id="Path_269" data-name="Path 269" d="M193,149.35a6.57,6.57,0,0,0-1.06,4.07h-3c.25-2.63-3.3-3.4-3-6.07A12.12,12.12,0,0,1,193,149.35Z" fill="#f47e72"/>
      <path id="Path_270" data-name="Path 270" d="M433.25,87.6c-1.63-.95-2.75-2.43-1.21-3.93,2.4-2.35,3-5.79,5.38-8.06C437.39,80.08,435.39,83.86,433.25,87.6Z" fill="#fff"/>
      <path id="Path_271" data-name="Path 271" d="M133,135.48l-1,10c-.73,1.05-1.83,1.12-3,1.09C130.74,143,129.48,138.38,133,135.48Z" fill="#f58880"/>
      <path id="Path_272" data-name="Path 272" d="M399.47,65.59c1.39-3.13,3.39-5.53,7.1-5.88C406.08,64,403.33,65.44,399.47,65.59Z" fill="#fbcdc8"/>
      <path id="Path_273" data-name="Path 273" d="M199.92,130.51v4c-2.14,0-3.77-.69-4.6-2.89C196.65,130.12,198.4,130.78,199.92,130.51Z" fill="#f47e72"/>
      <path id="Path_274" data-name="Path 274" d="M364.49,94.58c.19-3.52,2.14-6.26,4-9.06a10.46,10.46,0,0,1-4,9.06Z" fill="#fbcdc8"/>
      <path id="Path_275" data-name="Path 275" d="M302.64,104.56c-.18-1.77.22-3.24,2-4C304.75,102.27,304.47,103.81,302.64,104.56Z" fill="#fbcdc8"/>
      <path id="Path_276" data-name="Path 276" d="M304.64,100.59c0-1.14-.11-2.29,1-3.07C305.59,98.64,305.93,99.87,304.64,100.59Z" fill="#fbcdc8"/>
      <path id="Path_277" data-name="Path 277" d="M74.19,118.55c.31-.32.62-.65.92-1C74.81,117.9,74.5,118.23,74.19,118.55Z" fill="#fbcecb"/>
      <path id="Path_278" data-name="Path 278" d="M316.68,122.49c-.34-.39-.69-.78-1-1.18Z" fill="#f58880"/>
      <path id="Path_279" data-name="Path 279" d="M186,147.47l-1-1Z" fill="#f47e72"/>
      <path id="Path_280" data-name="Path 280" d="M115.16,162.39l-1-.95Z" fill="#f58880"/>
      <path id="Path_281" data-name="Path 281" d="M220.85,96.56l1.05,1.2Z" fill="#f69b95"/>
      <path id="Path_282" data-name="Path 282" d="M394.49,91.64l4,1c.46,6.3-1.41,12.14-3.64,17.87-.62,1.6-1,3.64-3.2,4.11C391.66,106.86,393.81,99.34,394.49,91.64Z" fill="#f8b0aa"/>
    </g>
  </g>
</svg>
