<svg xmlns="http://www.w3.org/2000/svg" viewBox="0 0 109.96 102.54"><defs><style>.cls-1{fill:#fcba0a;}.cls-2{fill:#fcb804;}</style></defs><g id="Layer_2" data-name="Layer 2"><g id="Layer_1-2" data-name="Layer 1"><path class="cls-1" d="M68.41,51.54A17.1,17.1,0,0,1,34.22,51a17.1,17.1,0,1,1,34.19.56ZM51.22,37.85a13.23,13.23,0,0,0-13.4,13.72A13.61,13.61,0,0,0,51.27,64.92,13.93,13.93,0,0,0,65,51.29,13.57,13.57,0,0,0,51.22,37.85Z"/><path class="cls-2" d="M85.15,73.94c0-17.61-.1-34.88.08-52.16,0-3.23-2-7.74,2.21-9.43,4.5-1.82,5.2,3.56,7.69,5.61,1.79,1.47,3.25,3.34,5,4.82,8.28,6.86,9.61,16.3,9.79,26.15,0,2.23-1.07,4-3.54,3.94s-3.22-1.87-3.29-4.14c-.26-8.92-2.09-17.16-10-22.86-1.65,1.37-.87,3.14-.88,4.64-.06,16.64,0,33.28,0,49.92,0,7.09-2.43,10.89-9,13.3A26.69,26.69,0,0,1,61.84,93c-4-1.87-7.23-4.69-7.35-9.27-.12-4.9,3.38-7.77,7.47-9.7,6-2.81,12.21-2.91,18.54-1.46C81.93,72.92,83.32,73.41,85.15,73.94Z"/><path class="cls-1" d="M79.56,16.63c-6.38-4.28-13-7.73-20.73-9.07A44.53,44.53,0,0,0,7.35,44.91C3.83,69.41,21.24,92.53,45.66,95a47.08,47.08,0,0,1,19.15,5.77c-16.67,4-31.58,1.13-44.91-9C-1,75.85-6.12,46.71,7.79,24.15,21.39,2.09,50-6.15,73.49,4.85,78.81,7.34,81.42,10.38,79.56,16.63Z"/><path class="cls-1" d="M58.17,51.09A6.72,6.72,0,0,1,51.78,58c-3.75.21-7.31-3-7.36-6.58a7.11,7.11,0,0,1,7-7A7,7,0,0,1,58.17,51.09Z"/></g></g></svg>